<?xml version="1.0" encoding="UTF-8" standalone="no"?>
<svg
   xmlns:dc="http://purl.org/dc/elements/1.1/"
   xmlns:cc="http://creativecommons.org/ns#"
   xmlns:rdf="http://www.w3.org/1999/02/22-rdf-syntax-ns#"
   xmlns:svg="http://www.w3.org/2000/svg"
   xmlns="http://www.w3.org/2000/svg"
   xmlns:sodipodi="http://sodipodi.sourceforge.net/DTD/sodipodi-0.dtd"
   xmlns:inkscape="http://www.inkscape.org/namespaces/inkscape"
   width="90mm"
   height="60mm"
   viewBox="0 0 90 60"
   version="1.1"
   id="svg8"
   sodipodi:docname="ALERTA_SISTEMA.svg"
   inkscape:export-filename="/home/akirasan/Documentos/alerta_decoración2.png"
   inkscape:export-xdpi="600"
   inkscape:export-ydpi="600"
   inkscape:version="1.0.1 (3bc2e813f5, 2020-09-07)">
  <defs
     id="defs2" />
  <sodipodi:namedview
     id="base"
     pagecolor="#ffffff"
     bordercolor="#666666"
     borderopacity="1.0"
     inkscape:pageopacity="1"
     inkscape:pageshadow="2"
     inkscape:zoom="2.2075618"
     inkscape:cx="147.54957"
     inkscape:cy="92.178312"
     inkscape:document-units="mm"
     inkscape:current-layer="layer1"
     inkscape:document-rotation="0"
     showgrid="false"
     inkscape:window-width="1858"
     inkscape:window-height="1016"
     inkscape:window-x="62"
     inkscape:window-y="27"
     inkscape:window-maximized="1"
     units="px"
     inkscape:pagecheckerboard="false" />
  <metadata
     id="metadata5">
    <rdf:RDF>
      <cc:Work
         rdf:about="">
        <dc:format>image/svg+xml</dc:format>
        <dc:type
           rdf:resource="http://purl.org/dc/dcmitype/StillImage" />
        <dc:title></dc:title>
      </cc:Work>
    </rdf:RDF>
  </metadata>
  <g
     inkscape:label="Capa 1"
     inkscape:groupmode="layer"
     id="layer1">
    <rect
       style="opacity:1;fill:none;fill-opacity:0.0959753;fill-rule:nonzero;stroke:#ff0000;stroke-width:0.9;stroke-linecap:round;stroke-linejoin:round;stroke-miterlimit:1.41421;stroke-dasharray:none;stroke-dashoffset:0;stroke-opacity:1;paint-order:markers stroke fill"
       id="rect833"
       width="35"
       height="23"
       x="5.15066"
       y="1.5001178"
       rx="0.375"
       ry="0.47130492" />
    <path
       id="rect835"
       style="opacity:1;fill:#000000;fill-opacity:1;fill-rule:nonzero;stroke:#000000;stroke-width:0.2;stroke-linecap:round;stroke-linejoin:round;stroke-miterlimit:1.41421;stroke-dasharray:none;stroke-dashoffset:0;stroke-opacity:1;paint-order:markers fill stroke"
       d="M 5.3209596,44.862474 H 64.57096 c 0.20775,0 0.375,0.210066 0.375,0.471 v 4.058 c 0,0.260934 -0.16725,0.471 -0.375,0.471 H 5.3209596 c -0.20775,0 -0.375,-0.210066 -0.375,-0.471 v -4.058 c 0,-0.260934 0.16725,-0.471 0.375,-0.471 z" />
    <path
       style="fill:none;fill-rule:evenodd;stroke:#ffff00;stroke-width:3.065;stroke-linecap:round;stroke-linejoin:round;stroke-miterlimit:4;stroke-dasharray:none;stroke-opacity:1"
       d="M 7.7968643,49.595033 9.5742099,45.642056"
       id="path2906"
       sodipodi:nodetypes="cc" />
    <path
       style="fill:none;fill-rule:evenodd;stroke:#ffff00;stroke-width:3.06501;stroke-linecap:round;stroke-linejoin:round;stroke-miterlimit:4;stroke-dasharray:none;stroke-opacity:1"
       d="M 13.992134,49.8432 15.76948,45.890223"
       id="path2906-1"
       sodipodi:nodetypes="cc" />
    <path
       style="fill:none;fill-rule:evenodd;stroke:#ffff00;stroke-width:3.06501;stroke-linecap:round;stroke-linejoin:round;stroke-miterlimit:4;stroke-dasharray:none;stroke-opacity:1"
       d="m 19.986988,49.718015 1.777346,-3.952977"
       id="path2906-2"
       sodipodi:nodetypes="cc" />
    <path
       style="fill:none;fill-rule:evenodd;stroke:#ffff00;stroke-width:3.06501;stroke-linecap:round;stroke-linejoin:round;stroke-miterlimit:4;stroke-dasharray:none;stroke-opacity:1"
       d="m 26.182258,49.966182 1.777346,-3.952977"
       id="path2906-1-7"
       sodipodi:nodetypes="cc" />
    <path
       style="fill:none;fill-rule:evenodd;stroke:#ffff00;stroke-width:3.06501;stroke-linecap:round;stroke-linejoin:round;stroke-miterlimit:4;stroke-dasharray:none;stroke-opacity:1"
       d="M 31.979634,49.676858 33.75698,45.723881"
       id="path2906-0"
       sodipodi:nodetypes="cc" />
    <path
       style="fill:none;fill-rule:evenodd;stroke:#ffff00;stroke-width:3.06501;stroke-linecap:round;stroke-linejoin:round;stroke-miterlimit:4;stroke-dasharray:none;stroke-opacity:1"
       d="M 38.174903,49.925025 39.95225,45.972048"
       id="path2906-1-9"
       sodipodi:nodetypes="cc" />
    <path
       style="fill:none;fill-rule:evenodd;stroke:#ffff00;stroke-width:3.06501;stroke-linecap:round;stroke-linejoin:round;stroke-miterlimit:4;stroke-dasharray:none;stroke-opacity:1"
       d="m 44.169758,49.79984 1.777346,-3.952977"
       id="path2906-2-3"
       sodipodi:nodetypes="cc" />
    <path
       style="fill:none;fill-rule:evenodd;stroke:#ffff00;stroke-width:3.06501;stroke-linecap:round;stroke-linejoin:round;stroke-miterlimit:4;stroke-dasharray:none;stroke-opacity:1"
       d="M 50.365028,50.048007 52.142374,46.09503"
       id="path2906-1-7-6"
       sodipodi:nodetypes="cc" />
    <path
       style="fill:none;fill-rule:evenodd;stroke:#ffff00;stroke-width:3.06501;stroke-linecap:round;stroke-linejoin:round;stroke-miterlimit:4;stroke-dasharray:none;stroke-opacity:1"
       d="m 55.993403,50.087371 1.777346,-3.952977"
       id="path2906-0-0"
       sodipodi:nodetypes="cc" />
    <path
       style="fill:none;fill-rule:evenodd;stroke:#ffff00;stroke-width:3.06501;stroke-linecap:round;stroke-linejoin:round;stroke-miterlimit:4;stroke-dasharray:none;stroke-opacity:1"
       d="m 62.188672,50.335538 1.777347,-3.952977"
       id="path2906-1-9-6"
       sodipodi:nodetypes="cc" />
    <path
       id="rect835-1"
       style="opacity:1;fill:#000000;fill-opacity:1;fill-rule:nonzero;stroke:#000000;stroke-width:0.2;stroke-linecap:round;stroke-linejoin:round;stroke-miterlimit:1.41421;stroke-dasharray:none;stroke-dashoffset:0;stroke-opacity:1;paint-order:markers fill stroke"
       d="M 5.3039554,52.404836 H 64.553958 c 0.207748,0 0.374999,0.210066 0.374999,0.471 v 4.058 c 0,0.260934 -0.167251,0.471 -0.374999,0.471 H 5.3039554 c -0.20775,0 -0.375,-0.210066 -0.375,-0.471 v -4.058 c 0,-0.260934 0.16725,-0.471 0.375,-0.471 z" />
    <path
       style="fill:none;fill-rule:evenodd;stroke:#ffff00;stroke-width:3.06501;stroke-linecap:round;stroke-linejoin:round;stroke-miterlimit:4;stroke-dasharray:none;stroke-opacity:1"
       d="m 7.7798604,57.137395 1.777346,-3.952977"
       id="path2906-8"
       sodipodi:nodetypes="cc" />
    <path
       style="fill:none;fill-rule:evenodd;stroke:#ffff00;stroke-width:3.06501;stroke-linecap:round;stroke-linejoin:round;stroke-miterlimit:4;stroke-dasharray:none;stroke-opacity:1"
       d="m 13.97513,57.385562 1.777346,-3.952977"
       id="path2906-1-79"
       sodipodi:nodetypes="cc" />
    <path
       style="fill:none;fill-rule:evenodd;stroke:#ffff00;stroke-width:3.06501;stroke-linecap:round;stroke-linejoin:round;stroke-miterlimit:4;stroke-dasharray:none;stroke-opacity:1"
       d="M 19.969984,57.260377 21.74733,53.3074"
       id="path2906-2-2"
       sodipodi:nodetypes="cc" />
    <path
       style="fill:none;fill-rule:evenodd;stroke:#ffff00;stroke-width:3.06501;stroke-linecap:round;stroke-linejoin:round;stroke-miterlimit:4;stroke-dasharray:none;stroke-opacity:1"
       d="M 26.165254,57.508544 27.9426,53.555567"
       id="path2906-1-7-0"
       sodipodi:nodetypes="cc" />
    <path
       style="fill:none;fill-rule:evenodd;stroke:#ffff00;stroke-width:3.06501;stroke-linecap:round;stroke-linejoin:round;stroke-miterlimit:4;stroke-dasharray:none;stroke-opacity:1"
       d="m 31.96263,57.21922 1.777347,-3.952977"
       id="path2906-0-2"
       sodipodi:nodetypes="cc" />
    <path
       style="fill:none;fill-rule:evenodd;stroke:#ffff00;stroke-width:3.06501;stroke-linecap:round;stroke-linejoin:round;stroke-miterlimit:4;stroke-dasharray:none;stroke-opacity:1"
       d="M 38.157899,57.467387 39.935246,53.51441"
       id="path2906-1-9-3"
       sodipodi:nodetypes="cc" />
    <path
       style="fill:none;fill-rule:evenodd;stroke:#ffff00;stroke-width:3.06501;stroke-linecap:round;stroke-linejoin:round;stroke-miterlimit:4;stroke-dasharray:none;stroke-opacity:1"
       d="m 44.152754,57.342202 1.777347,-3.952977"
       id="path2906-2-3-7"
       sodipodi:nodetypes="cc" />
    <path
       style="fill:none;fill-rule:evenodd;stroke:#ffff00;stroke-width:3.06501;stroke-linecap:round;stroke-linejoin:round;stroke-miterlimit:4;stroke-dasharray:none;stroke-opacity:1"
       d="M 50.348023,57.590369 52.12537,53.637392"
       id="path2906-1-7-6-5"
       sodipodi:nodetypes="cc" />
    <path
       style="fill:none;fill-rule:evenodd;stroke:#ffff00;stroke-width:3.06501;stroke-linecap:round;stroke-linejoin:round;stroke-miterlimit:4;stroke-dasharray:none;stroke-opacity:1"
       d="m 55.976399,57.629733 1.777346,-3.952977"
       id="path2906-0-0-9"
       sodipodi:nodetypes="cc" />
    <path
       style="fill:none;fill-rule:evenodd;stroke:#ffff00;stroke-width:3.06501;stroke-linecap:round;stroke-linejoin:round;stroke-miterlimit:4;stroke-dasharray:none;stroke-opacity:1"
       d="m 62.171668,57.8779 1.777346,-3.952977"
       id="path2906-1-9-6-2"
       sodipodi:nodetypes="cc" />
    <path
       id="rect835-1-2"
       style="opacity:1;fill:#000000;fill-opacity:1;fill-rule:nonzero;stroke:#000000;stroke-width:0.2;stroke-linecap:round;stroke-linejoin:round;stroke-miterlimit:1.41421;stroke-dasharray:none;stroke-dashoffset:0;stroke-opacity:1;paint-order:markers fill stroke"
       d="M 5.3410775,37.439064 H 64.59108 c 0.207748,0 0.374999,0.210066 0.374999,0.471 v 4.058 c 0,0.260934 -0.167251,0.470999 -0.374999,0.470999 H 5.3410775 c -0.2077499,0 -0.375,-0.210065 -0.375,-0.470999 v -4.058 c 0,-0.260934 0.1672501,-0.471 0.375,-0.471 z" />
    <path
       style="fill:none;fill-rule:evenodd;stroke:#ffff00;stroke-width:3.06501;stroke-linecap:round;stroke-linejoin:round;stroke-miterlimit:4;stroke-dasharray:none;stroke-opacity:1"
       d="M 7.8169826,42.171623 9.5943285,38.218646"
       id="path2906-8-8"
       sodipodi:nodetypes="cc" />
    <path
       style="fill:none;fill-rule:evenodd;stroke:#ffff00;stroke-width:3.06501;stroke-linecap:round;stroke-linejoin:round;stroke-miterlimit:4;stroke-dasharray:none;stroke-opacity:1"
       d="m 14.012252,42.41979 1.777346,-3.952977"
       id="path2906-1-79-9"
       sodipodi:nodetypes="cc" />
    <path
       style="fill:none;fill-rule:evenodd;stroke:#ffff00;stroke-width:3.06501;stroke-linecap:round;stroke-linejoin:round;stroke-miterlimit:4;stroke-dasharray:none;stroke-opacity:1"
       d="m 20.007106,42.294605 1.777346,-3.952978"
       id="path2906-2-2-7"
       sodipodi:nodetypes="cc" />
    <path
       style="fill:none;fill-rule:evenodd;stroke:#ffff00;stroke-width:3.06501;stroke-linecap:round;stroke-linejoin:round;stroke-miterlimit:4;stroke-dasharray:none;stroke-opacity:1"
       d="m 26.202376,42.542772 1.777346,-3.952977"
       id="path2906-1-7-0-3"
       sodipodi:nodetypes="cc" />
    <path
       style="fill:none;fill-rule:evenodd;stroke:#ffff00;stroke-width:3.06501;stroke-linecap:round;stroke-linejoin:round;stroke-miterlimit:4;stroke-dasharray:none;stroke-opacity:1"
       d="M 31.999752,42.253448 33.777099,38.30047"
       id="path2906-0-2-6"
       sodipodi:nodetypes="cc" />
    <path
       style="fill:none;fill-rule:evenodd;stroke:#ffff00;stroke-width:3.06501;stroke-linecap:round;stroke-linejoin:round;stroke-miterlimit:4;stroke-dasharray:none;stroke-opacity:1"
       d="m 38.195021,42.501615 1.777347,-3.952977"
       id="path2906-1-9-3-1"
       sodipodi:nodetypes="cc" />
    <path
       style="fill:none;fill-rule:evenodd;stroke:#ffff00;stroke-width:3.06501;stroke-linecap:round;stroke-linejoin:round;stroke-miterlimit:4;stroke-dasharray:none;stroke-opacity:1"
       d="m 44.189876,42.376429 1.777347,-3.952976"
       id="path2906-2-3-7-2"
       sodipodi:nodetypes="cc" />
    <path
       style="fill:none;fill-rule:evenodd;stroke:#ffff00;stroke-width:3.06501;stroke-linecap:round;stroke-linejoin:round;stroke-miterlimit:4;stroke-dasharray:none;stroke-opacity:1"
       d="M 50.385145,42.624596 52.162492,38.67162"
       id="path2906-1-7-6-5-9"
       sodipodi:nodetypes="cc" />
    <path
       style="fill:none;fill-rule:evenodd;stroke:#ffff00;stroke-width:3.06501;stroke-linecap:round;stroke-linejoin:round;stroke-miterlimit:4;stroke-dasharray:none;stroke-opacity:1"
       d="m 56.013521,42.663961 1.777346,-3.952978"
       id="path2906-0-0-9-3"
       sodipodi:nodetypes="cc" />
    <path
       style="fill:none;fill-rule:evenodd;stroke:#ffff00;stroke-width:3.06501;stroke-linecap:round;stroke-linejoin:round;stroke-miterlimit:4;stroke-dasharray:none;stroke-opacity:1"
       d="m 62.20879,42.912128 1.777346,-3.952977"
       id="path2906-1-9-6-2-1"
       sodipodi:nodetypes="cc" />
    <path
       style="fill:#ff0000;fill-opacity:1;stroke-width:0.0368509"
       d="M 6.7521914,17.693015 C 6.434257,17.578006 6.1474873,17.313401 6.1182799,17.108118 c -0.00703,-0.04921 -0.012949,-0.27265 -0.013171,-0.496531 -2.424e-4,-0.22388 -0.00173,-0.523339 -0.00332,-0.665464 -0.00159,-0.142123 -0.00368,-0.449377 -0.00464,-0.682785 -9.743e-4,-0.233409 -0.00523,-0.828688 -0.00945,-1.322843 -0.00424,-0.494155 -0.00462,-0.909244 -8.429e-4,-0.922418 0.0039,-0.01317 0.00492,-0.231585 0.00266,-0.48535 -0.0023,-0.253766 -0.00396,-0.619109 -0.00365,-0.81187 3.308e-4,-0.19276 -0.00143,-0.483395 -0.00388,-0.645854 -0.00245,-0.162459 -0.00504,-0.43653 -0.00566,-0.609045 -0.00472,-1.2549225 -0.00325,-1.3020882 0.039991,-1.2723457 0.030702,0.021121 0.030249,0.00526 -0.00151,-0.054955 -0.035341,-0.066943 -0.0349,-0.087675 0.00193,-0.099079 C 6.142476,9.0316683 6.164656,8.9975533 6.166,8.9638013 6.16808,8.9140283 6.16187,8.9118333 6.133418,8.9521953 6.105371,8.9920553 6.096073,8.9879283 6.086683,8.9314573 6.0519751,8.7227504 6.2861233,8.4233654 6.5843727,8.2951203 6.7951411,8.2044918 7.2757672,8.1592455 7.7357901,8.1867273 c 0.1214001,0.00722 0.3204826,0.010292 0.4424116,0.0067 0.3804799,-0.011119 1.1681039,-0.014072 1.4760722,-0.00552 0.162118,0.0045 0.3780891,0.00177 0.4799341,-0.00607 0.101845,-0.00783 0.458946,-0.010749 0.793561,-0.0065 0.334615,0.00427 0.63353,0.00294 0.664255,-0.00294 0.05,-0.00957 0.336365,-0.00976 1.512749,-0.00102 0.441057,0.00328 0.97523,1.759e-4 1.660752,-0.00963 0.547042,-0.00783 1.532377,-0.00861 1.863272,-0.00146 0.101351,0.00223 0.32562,-3.972e-4 0.498365,-0.00574 0.514359,-0.01591 1.059061,-0.01692 1.573974,-0.00292 0.266629,0.00724 0.499137,0.0058 0.516688,-0.00322 0.01754,-0.00902 0.172145,-0.012831 0.343546,-0.00848 0.171402,0.00437 0.32237,0.00199 0.335485,-0.00524 0.01314,-0.00724 0.412131,-0.00397 0.886707,0.00726 0.474573,0.011251 0.996121,0.011488 1.158997,5.459e-4 0.162873,-0.010941 0.40714,-0.013348 0.542815,-0.00533 0.135681,0.00802 0.260232,0.00725 0.276792,-0.00161 0.01657,-0.0089 0.287347,-0.013968 0.601745,-0.011266 0.314399,0.00269 0.829127,0.00185 1.143841,-0.0019 0.314714,-0.00375 0.78799,-0.00571 1.051724,-0.00437 0.263734,0.00135 0.558624,-0.00258 0.655313,-0.00871 0.130646,-0.0083 0.175333,0.00131 0.173988,0.037356 -0.0013,0.03397 0.0069,0.036425 0.02727,0.00818 0.01738,-0.024108 0.207164,-0.040741 0.471872,-0.041365 0.243536,-5.68e-4 0.733441,-0.00309 1.088679,-0.0056 0.355238,-0.00251 0.977982,-0.00536 1.383875,-0.00636 0.405896,-9.935e-4 0.879161,-0.00273 1.0517,-0.00387 0.172541,-0.00115 0.512924,-0.0017 0.756409,-0.00123 0.243485,4.642e-4 0.501046,-0.00399 0.57236,-0.00989 0.0713,-0.00589 0.425535,-0.00439 0.787166,0.00337 0.361629,0.00775 0.668767,0.00802 0.682529,6.015e-4 0.01388,-0.00746 0.298809,-0.010292 0.633441,-0.00635 0.334629,0.00394 0.675043,0.00278 0.756474,-0.0026 0.08142,-0.00536 0.338957,-0.00908 0.572279,-0.00827 0.233322,8.242e-4 0.635911,0.00138 0.894645,0.00127 0.337052,-1.538e-4 0.469846,0.011502 0.468398,0.041105 -0.0011,0.022723 0.02283,0.042535 0.0532,0.044022 0.03036,0.00149 0.05617,-0.016619 0.05732,-0.040238 0.0012,-0.023618 0.01211,-0.031968 0.0242,-0.01856 0.01226,0.013422 0.0496,0.011768 0.0832,-0.00363 0.09911,-0.045443 1.310412,-0.027502 1.278472,0.018935 -0.0148,0.021478 -0.01019,0.039863 0.01034,0.040867 0.02042,0.001 0.05376,-0.02474 0.07408,-0.057203 0.02969,-0.047445 0.06828,-0.052403 0.196769,-0.025288 0.08792,0.018556 0.184662,0.03542 0.215,0.03748 0.09267,0.00625 0.263926,0.092018 0.427642,0.2140744 0.233858,0.1743562 0.273043,0.3170161 0.268412,0.9772095 -0.0022,0.3042775 -0.0018,0.6654053 6.84e-4,0.8025014 0.0032,0.182777 -0.0075,0.24882 -0.04118,0.247589 -0.03405,-0.0012 -0.03508,0.0059 -0.0041,0.02779 0.04605,0.03256 0.05915,0.295168 0.05212,1.043948 -0.0027,0.273817 -0.0025,0.639081 4e-5,0.811694 0.0052,0.348107 0.0052,0.903924 -1.52e-4,1.442137 -0.0018,0.194466 0.0024,0.427108 0.0093,0.516989 0.0071,0.08989 0.01093,0.412367 0.0084,0.716632 -0.0025,0.304263 -0.0022,0.619731 5.51e-4,0.701034 0.0027,0.0813 0.0021,0.43823 -0.0015,0.793173 l -0.0063,0.645348 -0.114892,0.152086 c -0.235438,0.311677 -0.518267,0.409801 -1.175304,0.407756 -0.433039,-0.0013 -0.895037,5.42e-4 -1.494173,0.0061 -0.142119,0.0013 -0.598763,0.0028 -1.014783,0.0034 -0.416018,5.5e-4 -1.038791,0.004 -1.383939,0.0077 -0.345148,0.0037 -0.826705,0.0052 -1.070126,0.0034 -0.243423,-0.0018 -0.583769,-0.0019 -0.756327,-4.56e-4 -0.172556,0.0015 -0.47973,0.0019 -0.682602,8.9e-4 -0.426957,-0.0022 -0.930119,0.0034 -1.273563,0.01403 -0.132094,0.004 -0.447603,0.005 -0.701119,0.0024 -0.68166,-0.0075 -1.208687,-0.0059 -1.447537,0.0047 -0.127088,0.0056 -0.242496,-0.009 -0.28859,-0.03675 -0.05336,-0.03201 -0.06978,-0.03336 -0.05378,-0.0044 0.01539,0.02785 -0.03585,0.04075 -0.154251,0.03879 -0.0975,-0.0016 -0.218867,-0.0014 -0.269694,5.45e-4 -0.05084,0.0019 -0.341382,0.0021 -0.645683,3.91e-4 -0.3043,-0.0018 -0.66132,-4.77e-4 -0.793376,0.0027 -0.291646,0.0069 -0.695749,0.01078 -1.236549,0.01152 -0.223231,3.06e-4 -0.5222,0.0027 -0.664373,0.0053 -0.142179,0.0027 -0.457674,0.0035 -0.701109,0.0021 -0.24344,-0.0014 -0.583806,-0.0012 -0.756378,5.9e-4 -0.172571,0.0018 -0.479796,0.0032 -0.68272,0.0032 -0.202921,-3e-5 -0.485309,0.0028 -0.627526,0.0063 -0.142222,0.0034 -0.482619,0.0044 -0.756456,0.0022 -0.998672,-0.0081 -1.16682,-0.0083 -1.438845,-0.0013 -0.152383,0.004 -0.426494,0.0072 -0.60913,0.0074 -0.693393,3.91e-4 -1.902514,0.0063 -2.416733,0.01196 -0.363429,0.004 -0.541755,-0.0068 -0.556535,-0.03361 -0.01403,-0.02543 -0.02724,-0.02664 -0.03721,-0.0034 -0.0086,0.01977 -0.231288,0.036 -0.49509,0.03604 -0.263805,9.3e-5 -0.616772,0.0032 -0.784373,0.0072 -0.213176,0.005 -0.304128,-0.0053 -0.302719,-0.03403 0.0027,-0.05549 -0.134648,-0.05945 -0.156009,-0.0046 -0.01167,0.03 -0.199951,0.04294 -0.604656,0.04155 -1.296606,-0.0044 -1.520211,-0.0043 -1.768528,0.0014 -0.142201,0.0032 -0.408014,0.0066 -0.590687,0.0075 -1.2027084,0.0056 -1.7361542,0.0089 -2.011363,0.01196 -0.1725777,0.0019 -0.5461321,0.0018 -0.8301172,-4.78e-4 -0.2839841,-0.0022 -0.6325833,-0.0034 -0.774667,-0.0027 -0.1420822,7.31e-4 -0.3080544,-0.01657 -0.3688192,-0.0386 z M 6.5093931,17.328657 c 0.018689,-0.04241 0.00481,-0.05468 -0.055342,-0.04881 -0.04418,0.0043 -0.088155,0.02819 -0.097729,0.05311 -0.025728,0.06693 0.1235041,0.06277 0.153071,-0.0043 z m 4.8953099,0.23968 c 0.01869,-0.04241 0.0048,-0.05468 -0.05534,-0.04881 -0.04418,0.0043 -0.08816,0.02819 -0.09773,0.05311 -0.02573,0.06693 0.123504,0.06277 0.153071,-0.0043 z M 8.3201983,16.975989 c 0.1521054,0.0018 0.575584,-3.51e-4 0.9410659,-0.0049 1.1133868,-0.01373 1.2732768,-0.0092 1.2716768,0.03606 -0.0011,0.02966 0.0068,0.02975 0.02766,3.29e-4 0.01776,-0.025 0.208859,-0.0417 0.490393,-0.04284 0.253702,-0.001 0.585843,-0.0028 0.738089,-0.0038 0.302422,-0.0022 1.587889,-0.0083 2.029699,-0.0096 0.152218,-5.31e-4 0.476014,-0.0014 0.719557,-0.0021 0.243537,-6.4e-4 0.669751,-0.0041 0.947138,-0.0075 0.277383,-0.0035 0.639612,0.0031 0.804948,0.01477 0.165337,0.01166 0.30952,0.0081 0.3204,-0.0077 0.01078,-0.01581 0.08864,-0.02266 0.172793,-0.01524 0.08415,0.0075 0.339602,0.01004 0.567647,0.0056 0.331205,-0.0062 0.426824,0.0031 0.475223,0.04645 0.05177,0.04639 0.05645,0.0466 0.03214,0.0014 -0.0225,-0.04186 -0.0089,-0.04692 0.06565,-0.02433 0.05354,0.01623 0.105412,0.01211 0.120384,-0.0097 0.01447,-0.02104 0.111466,-0.03152 0.215549,-0.02333 0.104083,0.0083 0.197673,0.0124 0.207972,0.0093 0.01034,-0.0031 0.143286,-0.0066 0.295534,-0.0077 0.239912,-0.0018 0.267901,0.0043 0.209925,0.04542 -0.07762,0.05508 -0.09189,0.130882 -0.02494,0.132447 0.06689,0.0015 0.179303,-0.08279 0.181934,-0.136522 0.0015,-0.03024 0.03974,-0.03876 0.110994,-0.02469 0.05982,0.01181 0.113857,0.01019 0.120088,-0.0037 0.0063,-0.01388 0.276894,-0.02298 0.601443,-0.02036 0.32455,0.0027 0.698117,0.0025 0.830153,-2.74e-4 0.132034,-0.0027 0.455819,-0.0034 0.71952,-0.0013 0.263702,0.0019 0.626829,9.32e-4 0.806952,-0.0024 0.245732,-0.0046 0.334189,0.0061 0.354299,0.04245 0.02122,0.03843 0.03917,0.03733 0.08614,-0.0053 0.04306,-0.03903 0.148443,-0.05141 0.383728,-0.04506 0.178413,0.0047 0.382646,0.0056 0.453849,0.0019 0.0712,-0.0037 0.403278,-0.004 0.737932,-6.05e-4 0.334649,0.0035 0.699899,0.0038 0.811656,7.11e-4 0.111761,-0.0031 0.3858,-0.005 0.608984,-0.0044 0.223187,5.8e-4 0.64676,-0.0035 0.941278,-0.0093 0.566722,-0.01107 0.89741,-2.63e-4 0.819604,0.02683 -0.08511,0.02959 -0.05607,0.120399 0.04,0.12511 0.100465,0.0049 0.118154,-0.02875 0.0529,-0.100717 -0.03266,-0.03603 -0.02602,-0.0466 0.03,-0.0475 0.0396,-5.74e-4 0.105309,-0.0032 0.146018,-0.0059 0.04072,-0.0027 0.306469,-0.0049 0.590576,-0.0052 0.284107,-2.82e-4 0.641118,-0.0013 0.793353,-0.0022 0.152233,-8.25e-4 0.476032,-0.0018 0.719546,-0.0019 0.243517,-2e-4 0.542423,-0.0013 0.664241,-0.0027 0.121816,-0.0013 0.420742,-0.0028 0.664279,-0.0034 0.243531,-4.95e-4 0.571914,-0.003 0.729732,-0.0052 0.234667,-0.0034 0.290363,0.0062 0.305733,0.05305 0.01033,0.03146 0.03306,0.0579 0.05051,0.05875 0.01745,8.55e-4 0.0239,-0.02221 0.01432,-0.05125 -0.01358,-0.04134 0.04134,-0.05453 0.253179,-0.06083 0.266741,-0.008 1.362321,-0.01107 2.225889,-0.0065 0.243444,0.0013 0.550647,2.32e-4 0.682677,-0.0024 0.132034,-0.0027 0.42271,-0.0053 0.645956,-0.0059 0.223244,-6.01e-4 0.596866,-0.0018 0.83027,-0.0027 0.233401,-8.42e-4 0.598566,0.0012 0.811476,0.0044 0.366897,0.0056 0.643872,-0.02184 0.695799,-0.06893 0.01299,-0.01166 0.023,-0.440205 0.02247,-0.952175 -0.0018,-1.599209 0.0032,-1.797679 0.04495,-1.795635 0.0573,0.0028 0.05186,-0.09707 -0.0066,-0.122896 -0.03711,-0.01636 -0.05115,-0.132736 -0.05308,-0.440063 -0.0044,-0.700604 -0.0012,-0.784995 0.03139,-0.83122 0.01922,-0.02729 0.0127,-0.04572 -0.01677,-0.0475 -0.03499,-0.0021 -0.03257,-0.01193 0.0087,-0.03591 0.03133,-0.01814 0.03838,-0.03414 0.01564,-0.03557 -0.02791,-0.0018 -0.03935,-0.20857 -0.03533,-0.638735 0.0032,-0.349885 0.0031,-0.711004 -4.9e-4,-0.802492 -0.0099,-0.256296 -0.01285,-0.814744 -0.0074,-1.3839262 0.0053,-0.5554192 -0.0046,-0.7830399 -0.03708,-0.8417535 -0.01733,-0.031389 -0.939519,-0.057221 -1.288721,-0.036102 -0.048,0.00286 -0.08663,-0.013156 -0.08585,-0.035692 0.0011,-0.029751 -0.0065,-0.030027 -0.02763,-9.898e-4 -0.01599,0.021993 -0.116368,0.037545 -0.22305,0.034546 -0.106696,-0.00301 -0.314217,-0.00319 -0.461166,-4.28e-4 -0.543558,0.010203 -2.326653,0.010557 -2.480665,4.921e-4 -0.06069,-0.00391 -0.185341,-0.0012 -0.277019,0.00623 -0.09168,0.0074 -0.399069,0.0123 -0.683092,0.010882 -0.284023,-0.00141 -0.59953,-3.047e-4 -0.701126,0.00247 -0.101588,0.00273 -0.566616,0.00564 -1.033376,0.00638 -0.466757,7.439e-4 -1.205778,0.00475 -1.642267,0.00892 -0.47392,0.00453 -0.810052,-0.00663 -0.834418,-0.027683 -0.02454,-0.021205 -0.0466,-0.021463 -0.05531,-6.535e-4 -0.0078,0.019054 -0.280014,0.031808 -0.604521,0.028357 -0.324509,-0.00346 -0.640059,-0.00146 -0.701224,0.00441 -0.06116,0.00588 -0.368425,0.00812 -0.682803,0.00499 -0.314378,-0.00313 -0.646426,-0.00328 -0.737887,-2.992e-4 -0.09146,0.00297 -0.398629,0.00332 -0.682598,7.979e-4 -0.283969,-0.00254 -0.599509,-7.396e-4 -0.701202,0.00397 -0.101691,0.00474 -0.392387,0.00772 -0.645988,0.00664 -0.253602,-0.00106 -0.735139,8.38e-5 -1.070082,0.00255 -0.782757,0.00577 -1.436279,0.00663 -1.900218,0.00248 -0.202834,-0.0018 -0.435403,8.157e-4 -0.516819,0.00586 -0.0814,0.00504 -0.388673,0.00721 -0.682795,0.00483 -0.29412,-0.00239 -0.593099,2.158e-4 -0.664394,0.00579 -0.07129,0.00557 -0.341207,0.00794 -0.599804,0.00529 -0.355162,-0.00366 -0.469777,-0.015817 -0.46854,-0.049782 0.0012,-0.033843 -0.0058,-0.034602 -0.02795,-0.00309 -0.03166,0.044781 -0.351555,0.060394 -1.062273,0.05185 -0.243364,-0.00292 -0.716613,-0.00146 -1.051669,0.00328 -0.335052,0.00472 -0.856416,0.00524 -1.158577,0.00113 -0.302162,-0.0041 -0.559616,-0.0019 -0.572112,0.00487 -0.04638,0.02517 -0.773824,-3.7e-6 -0.798885,-0.027643 -0.03951,-0.043584 -0.205282,-0.043039 -0.181182,5.905e-4 0.0127,0.022949 -0.04905,0.037227 -0.156399,0.036157 -0.219429,-0.00219 -0.225971,-0.00221 -0.970536,-0.00282 -0.334806,-2.758e-4 -0.666967,0.00188 -0.738133,0.00478 -0.07117,0.00294 -0.37838,0.00415 -0.682693,0.00276 C 10.272817,8.9319423 9.9324726,8.9316823 9.8208142,8.932747 9.709155,8.933787 9.4102403,8.935097 9.156564,8.935567 8.9028852,8.9360523 8.6408695,8.942267 8.5743061,8.949417 8.4866571,8.958807 8.4480216,8.946407 8.4342083,8.904357 8.4091123,8.827945 8.3501923,8.826908 8.3464773,8.902787 c -0.0023,0.047066 -0.013407,0.050109 -0.052461,0.014352 -0.031105,-0.028475 -0.054964,-0.031895 -0.06412,-0.00921 -0.008,0.01991 -0.2138048,0.035897 -0.4572936,0.035522 -0.5652346,-8.666e-4 -0.7902254,0.01261 -0.874027,0.052309 -0.060111,0.028477 -0.067411,0.077421 -0.070874,0.474696 -0.00325,0.375393 -0.012654,0.4458298 -0.061456,0.4618715 -0.080266,0.02637 -0.077015,0.1207665 0.0043,0.1247475 0.048151,0.0024 0.065903,0.03169 0.063294,0.104561 -0.00201,0.05571 -8.655e-4,0.425173 0.00252,0.821039 0.00335,0.395864 0.00505,0.935537 0.00369,1.199271 -0.00134,0.263734 8.841e-4,0.562692 0.00492,0.664351 0.00406,0.10166 0.00459,0.42475 0.00125,0.717982 -0.00337,0.293228 -0.00219,0.583835 0.00261,0.645791 0.00484,0.06196 0.00762,0.51106 0.00626,0.998009 -0.00136,0.486948 0.0026,0.930507 0.0088,0.985686 0.00836,0.07443 -0.013038,0.117608 -0.08298,0.167276 -0.1058459,0.07519 -0.1263022,0.146991 -0.043045,0.151074 0.030355,0.0015 0.056022,-0.01388 0.057014,-0.03411 9.913e-4,-0.02024 0.01736,-0.03604 0.036393,-0.03511 0.019031,9.32e-4 0.028236,0.04703 0.020447,0.102459 -0.017931,0.127693 0.028526,0.351938 0.081487,0.393431 0.022249,0.01742 0.2811801,0.03216 0.5753883,0.03275 0.2942133,5.08e-4 0.6593763,0.0025 0.8114777,0.0043 z M 7.6839096,16.255946 c -0.1059891,-0.0335 -0.1416289,-0.06833 -0.1682026,-0.164414 -0.018552,-0.06705 -0.02159,-0.149371 -0.00682,-0.182933 0.035576,-0.08069 0.2242261,-0.164748 0.2973521,-0.132505 0.037257,0.01646 0.054975,0.0079 0.049636,-0.02415 -0.00456,-0.02734 0.029943,-0.0649 0.076701,-0.08345 0.046752,-0.01857 0.095675,-0.06243 0.1087223,-0.09749 0.013023,-0.03505 0.03689,-0.06309 0.053019,-0.0623 0.044769,0.0022 0.2345864,-0.390704 0.3058766,-0.633133 0.061473,-0.209013 0.2354091,-0.8414 0.3648148,-1.326357 0.2537112,-0.950798 0.2506661,-0.94208 0.3317591,-0.950028 0.1043619,-0.01023 0.1351276,-0.09708 0.036112,-0.10193 -0.075285,-0.0037 -0.1032102,-0.108669 -0.043342,-0.162951 0.014692,-0.01333 0.033595,-0.06083 0.041939,-0.105558 0.00836,-0.04472 0.034794,-0.155071 0.058764,-0.245213 0.023963,-0.09014 0.097066,-0.368811 0.1624723,-0.619262 0.065407,-0.250451 0.1285289,-0.4798 0.1402764,-0.509662 0.011768,-0.02986 0.062361,0.105436 0.1124683,0.300666 0.050107,0.19523 0.1068411,0.413416 0.1260689,0.484857 0.05493,0.204076 0.047686,0.23928 -0.3234696,1.571603 -0.052098,0.187019 -0.3166765,1.178049 -0.4083582,1.5296 -0.060095,0.230419 -0.112015,0.468618 -0.1153801,0.52933 -0.010159,0.184861 0.106444,0.346393 0.3320769,0.459677 0.3009057,0.151079 0.3704843,0.301926 0.2179491,0.472517 -0.064942,0.07263 -0.1158836,0.08028 -0.5668158,0.08506 -0.7649184,0.0081 -0.8088268,0.0043 -0.8065198,-0.07062 0.00176,-0.05849 -0.0025,-0.05919 -0.045886,-0.0077 -0.067739,0.08044 -0.1754471,0.09549 -0.3312166,0.04626 z m 0.3857118,-0.190509 c 0.00258,-0.05274 -0.0861,-0.117264 -0.1258873,-0.09158 -0.075957,0.04901 -0.058122,0.114947 0.032287,0.119374 0.050609,0.0025 0.092733,-0.0101 0.093598,-0.02779 z m 1.4529044,-4.376603 c 0.068036,-0.06169 0.074689,-0.128511 0.012949,-0.129961 -0.064538,-0.0015 -0.1792682,0.08204 -0.1817314,0.132352 -0.00288,0.05893 0.1027969,0.05742 0.1687778,-0.0024 z m 1.1085642,4.484973 c -0.04947,-0.05456 -0.08847,-0.129399 -0.08666,-0.166306 0.0039,-0.07945 0.110344,-0.225854 0.162371,-0.223307 0.07619,0.0037 0.226643,-0.186402 0.231863,-0.29302 0.0057,-0.116788 -0.125003,-0.693385 -0.192408,-0.848691 -0.03287,-0.07572 -0.06586,-0.09415 -0.168629,-0.09422 -0.07028,-1.1e-5 -0.357233,5.78e-4 -0.6376885,0.0014 l -0.5099119,0.0015 0.029977,-0.160383 c 0.066987,-0.358249 0.068589,-0.360935 0.2156299,-0.359785 0.074453,5.7e-4 0.1852165,3.31e-4 0.2461385,-5.45e-4 0.060916,-8.75e-4 0.244292,4.6e-5 0.407494,0.0021 0.257646,0.0032 0.297842,-0.0052 0.305167,-0.06397 0.0047,-0.0372 -0.0066,-0.07798 -0.02498,-0.09062 -0.01838,-0.01264 -0.03222,-0.04783 -0.03073,-0.0782 0.0016,-0.03236 0.01975,-0.04348 0.04391,-0.02686 0.04527,0.03114 0.01786,-0.03584 -0.05536,-0.135366 -0.0415,-0.0564 -0.0946,-0.311065 -0.08347,-0.400312 0.003,-0.025 -0.0095,-0.03708 -0.02796,-0.02686 -0.01849,0.01023 -0.03233,-0.0078 -0.03075,-0.04008 0.0016,-0.03235 -0.04688,-0.263985 -0.107684,-0.514837 -0.06081,-0.250845 -0.130699,-0.548388 -0.155311,-0.661201 -0.02461,-0.112813 -0.06257,-0.2807 -0.08434,-0.37308 C 10.055988,11.528784 9.99494,11.26845 9.9421177,11.042649 9.8892957,10.816848 9.817112,10.516901 9.7817147,10.376103 9.7334507,10.184137 9.7258467,10.073022 9.7513307,9.9318744 9.8130997,9.5896373 9.8119357,9.5912058 10.003267,9.5927599 c 0.09494,7.901e-4 0.222622,-0.00235 0.283725,-0.00694 0.09483,-0.00713 1.335752,-0.00915 1.492986,-0.00245 0.03475,0.00148 0.07114,0.081663 0.102612,0.2260539 0.02683,0.123067 0.0575,0.2490902 0.06816,0.2800502 0.01787,0.05193 0.106771,0.430362 0.131488,0.559864 0.0059,0.03072 0.06729,0.282774 0.136494,0.560109 0.222981,0.893543 0.467931,1.921436 0.471649,1.979181 0.0021,0.03089 0.01403,0.07499 0.02673,0.09799 0.01255,0.023 0.04264,0.132094 0.0665,0.242426 0.02386,0.110331 0.08487,0.36866 0.135534,0.574064 0.05066,0.205403 0.09565,0.415141 0.09998,0.466083 0.0043,0.05094 0.02256,0.104383 0.04058,0.118759 0.01801,0.01437 0.03117,0.0841 0.02931,0.154959 -0.0021,0.07085 0.0043,0.121931 0.01373,0.113516 0.0095,-0.0084 0.03482,0.07136 0.05646,0.177279 0.07682,0.375843 0.14799,0.504868 0.336922,0.610825 0.266214,0.149292 0.296711,0.285202 0.105987,0.472253 -0.0685,0.06717 -0.613649,0.07607 -0.68449,0.01122 -0.03799,-0.03482 -0.06175,-0.03418 -0.102399,0.0027 -0.03364,0.03051 -0.140909,0.0443 -0.294285,0.03784 -0.132743,-0.0056 -0.306917,-0.0037 -0.38706,0.0044 -0.08013,0.0081 -0.430794,0.01137 -0.779227,0.0074 l -0.633519,-0.0072 z m 2.105044,-0.198016 c -0.01019,-0.03094 -0.02498,-0.05657 -0.03294,-0.05696 -0.008,-3.9e-4 -0.01567,0.02413 -0.01716,0.05451 -0.0015,0.03037 0.01329,0.056 0.03294,0.05696 0.01961,9.61e-4 0.02733,-0.02356 0.01716,-0.05451 z M 11.50794,15.082963 c -0.04872,-0.03351 -0.142865,-0.01196 -0.145076,0.03322 -0.0024,0.04949 0.08561,0.06975 0.138544,0.03189 0.03821,-0.02733 0.03971,-0.04228 0.0064,-0.06511 z m 0.3112,-0.808366 c 0.03674,-0.02515 0.06813,-0.07255 0.06972,-0.105307 0.0025,-0.05018 -0.01181,-0.05366 -0.09115,-0.02215 -0.05175,0.02059 -0.09556,0.06789 -0.09739,0.105127 -0.0039,0.07946 0.02691,0.08525 0.118814,0.02233 z m -0.997387,-0.163502 c 0.0015,-0.03036 -0.0038,-0.05553 -0.01177,-0.05592 -0.0079,-3.89e-4 -0.0252,0.02366 -0.03834,0.05347 -0.01314,0.02979 -0.0078,0.05496 0.01177,0.05592 0.01961,9.6e-4 0.03686,-0.02309 0.03834,-0.05347 z m 1.335291,-0.897866 c 0.0015,-0.03047 -0.06913,-0.05119 -0.08682,-0.02548 -0.01152,0.01668 0.0032,0.03151 0.03274,0.03295 0.0295,0.0014 0.05382,-0.0019 0.05409,-0.0075 z m -1.414852,-1.96207 c -0.02205,-0.04655 -0.05988,-0.06674 -0.106642,-0.05693 -0.100546,0.0211 -0.06006,0.119228 0.05145,0.124688 0.07657,0.0038 0.08448,-0.006 0.05519,-0.06776 z m -0.20894,-0.29027 c -0.02448,-0.03262 -0.0532,-0.05143 -0.06382,-0.0418 -0.01063,0.0096 7.49e-4,0.04419 0.02522,0.07681 0.02448,0.03262 0.05319,0.05143 0.06381,0.0418 0.01063,-0.0096 -7.49e-4,-0.04419 -0.02522,-0.07681 z m 1.228974,-0.714625 c 0.01725,-0.03913 -0.0013,-0.05541 -0.06697,-0.05862 -0.08835,-0.0043 -0.117941,0.03035 -0.07052,0.08263 0.0406,0.04478 0.112716,0.03219 0.137503,-0.02401 z m 2.471839,5.946981 c -0.166723,-0.135285 -0.02616,-0.492006 0.170675,-0.433146 0.04397,0.0131 0.05837,0.0129 0.03198,-6.52e-4 -0.03291,-0.01684 -0.01122,-0.04447 0.06888,-0.08798 0.155424,-0.0844 0.144393,0.04478 0.13763,-1.613099 -0.0025,-0.598744 -0.0015,-1.301137 0.0021,-1.560876 0.0035,-0.259742 -0.0022,-0.488316 -0.01314,-0.50795 -0.01093,-0.01964 0.0019,-0.03489 0.02851,-0.0339 0.03284,0.0012 0.03569,-0.0075 0.009,-0.02723 -0.05912,-0.04375 -0.05029,-1.04401 0.0092,-1.041836 0.03183,0.0012 0.03367,-0.0071 0.0061,-0.02737 -0.02168,-0.01597 -0.04269,-0.141261 -0.04669,-0.278425 -0.0089,-0.30523 -0.06968,-0.419632 -0.245169,-0.461529 -0.254123,-0.06067 -0.346758,-0.3018938 -0.178737,-0.4654254 0.0791,-0.076985 0.104585,-0.081022 0.481938,-0.076325 0.111539,0.00135 0.485127,-0.00356 0.830196,-0.011 0.345066,-0.00744 0.685455,-0.00809 0.756419,-0.00145 0.07096,0.00664 0.137468,0.00913 0.147786,0.00561 0.01034,-0.0036 0.106062,-0.00929 0.212771,-0.012743 0.15643,-0.00505 0.19347,0.00468 0.191248,0.05008 -0.0035,0.072724 0.05967,0.075119 0.136818,0.00517 0.04062,-0.036834 0.09205,-0.045564 0.155463,-0.02641 0.157648,0.047631 0.22333,0.1393019 0.203924,0.284606 -0.01512,0.1126868 -0.04077,0.1414074 -0.191592,0.2138754 -0.310387,0.149146 -0.307546,0.144423 -0.300621,0.499879 0.0064,0.325158 0.0071,0.516031 0.0069,1.810129 -5.4e-5,0.415989 0.0027,0.864398 0.0061,0.996464 0.0034,0.132068 0.0061,0.455954 0.0061,0.719749 -5.5e-5,0.263798 0.0066,0.492412 0.01482,0.508033 0.0083,0.01562 -0.0035,0.0275 -0.02618,0.02639 -0.02265,-0.0011 -0.03194,0.01465 -0.02069,0.03501 0.03508,0.06353 0.05141,0.687961 0.03718,1.423146 l -0.0028,0.147449 -0.349669,-0.01713 c -0.192317,-0.0094 -0.359592,-0.005 -0.371719,0.0096 -0.01211,0.01477 -0.245003,0.0236 -0.517494,0.01971 -0.272493,-0.0038 -0.678089,-0.0068 -0.901323,-0.0063 -0.341157,5.64e-4 -0.41861,-0.0097 -0.48572,-0.06411 z m 0.954815,-0.09738 c -0.02448,-0.03261 -0.0532,-0.05143 -0.06382,-0.0418 -0.01063,0.0097 7.93e-4,0.0442 0.02518,0.07681 0.02448,0.03262 0.0532,0.05143 0.06382,0.0418 0.01063,-0.0097 -7.93e-4,-0.04419 -0.02522,-0.07681 z m 1.184169,-0.765917 c -0.102385,-0.02021 -0.148489,0.01641 -0.07999,0.06353 0.03207,0.02205 0.07212,0.01979 0.106785,-0.006 0.04676,-0.03482 0.04258,-0.04383 -0.02678,-0.05753 z m -0.350852,-0.429253 c 9.91e-4,-0.02025 -0.01576,-0.03766 -0.03718,-0.03871 -0.02145,-0.0011 -0.02955,0.01516 -0.01806,0.03601 0.01152,0.02086 0.02826,0.03828 0.03718,0.03872 0.009,4.41e-4 0.01707,-0.01577 0.01806,-0.03601 z m 0.704148,-0.387182 c 0.03033,-0.0275 0.0564,-0.07568 0.05794,-0.107058 0.0024,-0.04749 -0.01299,-0.05078 -0.09127,-0.01963 -0.09161,0.03645 -0.1222,0.09741 -0.07496,0.149496 0.033,0.0364 0.04601,0.03366 0.108276,-0.02281 z m -0.96063,-2.375975 c 0.01417,-0.03214 0.0087,-0.04722 -0.0127,-0.03534 -0.0206,0.01138 -0.03824,0.03629 -0.03919,0.05534 -0.0027,0.05294 0.02435,0.04257 0.05196,-0.02 z m 0.0703,-0.216013 c 0.0015,-0.03036 -0.0038,-0.05553 -0.01181,-0.05592 -0.008,-3.9e-4 -0.0252,0.02366 -0.03835,0.05347 -0.01314,0.02979 -0.0078,0.05496 0.01181,0.05592 0.01961,9.61e-4 0.03685,-0.02309 0.03835,-0.05347 z m -0.192534,-0.212349 c -0.01152,-0.02086 -0.03752,-0.03874 -0.05775,-0.03973 -0.02026,-9.92e-4 -0.02738,0.01526 -0.01581,0.03613 0.01152,0.02086 0.03752,0.03874 0.05775,0.03973 0.02023,9.9e-4 0.02738,-0.01527 0.01581,-0.03612 z m 0.0062,-0.198797 c -0.0096,-0.0288 -0.06363,-0.06151 -0.12037,-0.0727 -0.0918,-0.01811 -0.09894,-0.0128 -0.06479,0.04835 0.04592,0.08225 0.211343,0.104004 0.185167,0.02435 z m -0.22107,-0.309807 c -0.02448,-0.03262 -0.05319,-0.05143 -0.06382,-0.0418 -0.01063,0.0096 7.93e-4,0.0442 0.02519,0.07681 0.02448,0.03262 0.0532,0.05143 0.06382,0.0418 0.01063,-0.0096 -7.93e-4,-0.0442 -0.02522,-0.0768 z m 1.228976,-0.714624 c 0.01725,-0.03914 -0.0013,-0.05541 -0.06696,-0.05862 -0.08836,-0.0043 -0.117933,0.03035 -0.07052,0.08263 0.0406,0.04478 0.112721,0.03219 0.137512,-0.02401 z m 0.59567,5.522621 c -4.19e-4,-0.232992 0.004,-0.245801 0.101455,-0.290194 0.05605,-0.02554 0.120443,-0.04554 0.143108,-0.04443 0.06064,0.003 0.33874,-0.177093 0.498073,-0.322497 0.16676,-0.152183 0.306483,-0.397282 0.462385,-0.81112 0.0638,-0.169361 0.134958,-0.319199 0.158118,-0.332972 0.02938,-0.01748 0.02822,-0.0259 -0.0038,-0.02786 -0.07262,-0.0045 -0.04929,-0.09359 0.04539,-0.1734 0.09392,-0.07917 0.322519,-0.123254 0.385514,-0.07434 0.07888,0.06124 0.11563,0.200214 0.10584,0.400161 -0.0077,0.157557 -0.02271,0.204236 -0.06525,0.202154 -0.08219,-0.004 -0.0724,0.111012 0.01166,0.137462 0.06061,0.01906 0.07127,0.05421 0.06427,0.211839 -0.01255,0.282837 -0.01571,1.101666 -0.0044,1.17617 0.0056,0.03694 -0.0058,0.05433 -0.02639,0.0402 -0.02243,-0.01544 -0.02853,0.0041 -0.01598,0.0514 0.01107,0.04196 0.0066,0.08343 -0.0099,0.09214 -0.01648,0.0087 -0.336944,0.0127 -0.712164,0.0089 -0.375217,-0.0038 -0.69513,4.1e-5 -0.710915,0.0087 -0.01578,0.0086 -0.03737,-0.01063 -0.04796,-0.04295 -0.01048,-0.03225 -0.03353,-0.05933 -0.05097,-0.06019 -0.01745,-8.55e-4 -0.0234,0.02374 -0.01314,0.05471 0.01477,0.04489 -0.01509,0.0546 -0.147941,0.04811 l -0.166521,-0.0081 z m 1.6254,-0.371547 c 0.01137,-0.01636 -0.003,-0.03089 -0.03152,-0.03229 -0.02859,-0.0014 -0.04412,0.01168 -0.03452,0.02905 0.0096,0.01738 0.02377,0.03191 0.03152,0.03229 0.0078,3.83e-4 0.02327,-0.0127 0.03452,-0.02905 z m -0.02516,-0.121282 c 0.01462,-0.02134 0.01299,-0.05394 -0.0038,-0.07244 -0.0414,-0.04566 -0.140303,0.01301 -0.111097,0.0659 0.02961,0.0536 0.08055,0.0565 0.114906,0.0066 z m 0.726641,0.663515 c -0.0924,-0.06258 -0.110609,-0.09897 -0.105161,-0.210193 0.0069,-0.143009 0.0577,-0.197687 0.253188,-0.273047 0.221626,-0.08544 0.231761,-0.128194 0.236768,-0.998901 6.32e-4,-0.106503 0.01669,-0.192881 0.03572,-0.19195 0.01903,9.31e-4 0.01784,-0.02065 -0.0027,-0.04795 -0.02048,-0.02731 -0.03566,-0.08201 -0.03373,-0.121561 0.0019,-0.03955 -1.5e-5,-0.329433 -0.0043,-0.644176 -0.0044,-0.314746 -0.0072,-0.796367 -0.0063,-1.070272 8.46e-4,-0.273905 -0.0013,-0.572861 -0.0047,-0.664345 -0.0035,-0.09149 -0.0052,-0.417798 -0.0037,-0.725143 0.0014,-0.307344 -1.4e-4,-0.614573 -0.0034,-0.682728 -0.0032,-0.06816 -0.0053,-0.160055 -0.0044,-0.204222 0.0021,-0.106493 -0.07789,-0.189536 -0.231199,-0.240056 -0.158973,-0.05238 -0.245644,-0.1476089 -0.254184,-0.2792607 -0.0077,-0.1196783 0.126851,-0.2657374 0.210813,-0.2287149 0.02994,0.0132 0.04418,0.00704 0.03256,-0.013998 -0.0127,-0.02289 0.06261,-0.035015 0.193307,-0.031132 0.117712,0.00346 0.263937,0.004 0.324953,0.00114 0.266409,-0.012521 0.793034,-0.01768 1.343575,-0.013156 l 0.593823,0.00487 -0.0044,0.1438142 c -0.0024,0.079096 -0.0027,0.2518117 -4.75e-4,0.3838214 0.0084,0.510663 0.01615,1.515008 0.01494,1.937723 -6.87e-4,0.243473 6.4e-4,0.899348 0.003,1.457502 0.0066,1.586584 0.0068,1.613423 0.0046,2.140142 -0.0011,0.273891 0.0049,0.52738 0.01329,0.563303 0.01255,0.05366 -0.0099,0.06476 -0.125375,0.06227 -0.353303,-0.0077 -0.648766,-0.0065 -0.900986,0.0035 -0.150492,0.0059 -0.505896,0.0075 -0.789786,0.0034 -0.283888,-0.0041 -0.551621,-0.0025 -0.594958,0.0037 -0.04334,0.0062 -0.129082,-0.02277 -0.190548,-0.06439 z m 1.740473,-0.614013 c -0.02035,-0.03684 -0.165078,-0.01032 -0.167083,0.03066 -0.0024,0.04822 0.08535,0.06959 0.136316,0.03321 0.02605,-0.01859 0.0399,-0.04733 0.03077,-0.06387 z m 0.289203,-0.81128 c 0.06757,-0.04625 0.09791,-0.165216 0.04286,-0.167912 -0.05426,-0.0027 -0.200418,0.141485 -0.180332,0.177845 0.02612,0.04731 0.05716,0.04507 0.137483,-0.0099 z m -1.393363,-0.847 c -0.02015,-0.06129 -0.0832,-0.08018 -0.08588,-0.02572 -0.0014,0.02794 0.02349,0.04822 0.09645,0.07867 0.0043,0.0018 -3.79e-4,-0.02201 -0.01063,-0.05295 z m 0.07866,-2.494561 c -0.02512,-0.0277 -0.04216,-0.03072 -0.04328,-0.0077 -10e-4,0.02092 0.0087,0.04961 0.02148,0.06377 0.01285,0.01416 0.03231,0.0176 0.04328,0.0077 0.01093,-0.0099 0.0013,-0.03865 -0.02148,-0.06377 z m 1.244436,-0.687426 c 0.04103,-0.04479 0.03362,-0.0537 -0.048,-0.05769 -0.0933,-0.0046 -0.124474,0.02911 -0.07619,0.08236 0.03623,0.03996 0.07139,0.03297 0.124193,-0.02466 z m 0.321802,-0.8670905 c 0.03034,-0.027505 0.05645,-0.076613 0.05804,-0.1091416 0.0024,-0.049713 -0.01078,-0.05283 -0.08207,-0.019579 -0.09884,0.046027 -0.146077,0.1019256 -0.122393,0.1448242 0.02543,0.046026 0.08509,0.039464 0.146387,-0.016105 z M 20.852073,9.6951488 c 0.0015,-0.030362 -0.0038,-0.055529 -0.01181,-0.055919 -0.008,-3.898e-4 -0.02522,0.023663 -0.03835,0.053466 -0.01314,0.029793 -0.0078,0.054959 0.01181,0.055919 0.01959,9.596e-4 0.03686,-0.023093 0.03835,-0.053466 z m 1.712087,6.2737682 c -0.0043,-0.137623 -0.0049,-0.25314 -0.001,-0.256701 0.0037,-0.0036 0.04828,-0.01121 0.09893,-0.01699 0.05065,-0.0057 0.173885,-0.04234 0.27386,-0.08124 0.09998,-0.0389 0.189864,-0.07034 0.199754,-0.06985 0.0099,4.84e-4 0.04331,-0.02208 0.07424,-0.05014 0.03096,-0.02806 0.08086,-0.04018 0.110875,-0.02694 0.03003,0.01325 0.05051,0.009 0.04551,-0.0094 -0.005,-0.01843 0.0659,-0.104162 0.157542,-0.190512 0.09164,-0.08635 0.213796,-0.223849 0.271439,-0.305553 0.09462,-0.134115 0.109384,-0.142356 0.15191,-0.0848 0.03471,0.04699 0.05273,0.0519 0.06851,0.01868 0.01167,-0.0248 0.04134,-0.04409 0.06572,-0.0429 0.02436,0.0012 0.04843,-0.03083 0.05347,-0.07117 0.01063,-0.08562 9.55e-4,-0.08898 -0.0977,-0.03385 -0.117461,0.0656 -0.116959,0.01747 0.0025,-0.239358 0.136996,-0.294515 0.218629,-0.384855 0.342241,-0.378803 0.243213,0.0119 0.257709,0.05946 0.251154,0.823988 -0.0024,0.273832 -0.0025,0.673864 -3e-4,0.888963 l 0.004,0.391089 -0.530488,6.36e-4 c -0.291767,3.5e-4 -0.756302,-0.0028 -1.032298,-0.0071 l -0.501813,-0.0078 z m 1.183845,-0.282574 c -0.0214,-0.02359 -0.05407,-0.02519 -0.09017,-0.0044 -0.0502,0.02889 -0.05059,0.03689 -0.0034,0.07055 0.06532,0.04664 0.144895,-0.0096 0.09363,-0.06613 z m 1.862052,0.487062 c -0.03148,-0.0197 -0.0466,-0.0513 -0.03359,-0.0702 0.01299,-0.01891 0.0015,-0.0309 -0.02559,-0.02666 -0.06653,0.01042 -0.0757,-0.221112 -0.01152,-0.29117 0.02705,-0.02953 0.121507,-0.08346 0.209903,-0.119846 0.0884,-0.03638 0.170196,-0.09321 0.18179,-0.126283 0.03346,-0.09544 0.05868,-0.515952 0.04669,-0.778332 -0.0061,-0.1322 -0.0092,-0.458571 -0.0069,-0.725275 0.0022,-0.266702 0.0019,-0.598777 -7.84e-4,-0.73794 -0.0027,-0.139161 -0.0046,-0.775998 -0.0043,-1.415189 9.18e-4,-1.789622 0.01211,-1.697265 -0.216906,-1.783173 -0.232841,-0.08733 -0.381334,-0.3058042 -0.241174,-0.3548384 0.03665,-0.012831 0.0365,-0.024515 -6.38e-4,-0.053422 -0.03653,-0.028408 -0.01816,-0.053127 0.079,-0.1063982 0.0986,-0.05406 0.2122,-0.069518 0.513999,-0.069971 0.213085,-3.145e-4 0.757906,-0.00176 1.210712,-0.0032 0.452808,-0.00144 0.829782,0.00455 0.837722,0.013304 0.008,0.00877 0.01388,0.1643869 0.01329,0.3458418 -9.16e-4,0.2632648 -0.01344,0.3426798 -0.06231,0.3930738 -0.0555,0.05726 -0.05573,0.06135 -0.0024,0.0438 0.06643,-0.02183 0.07907,0.145729 0.07412,0.981965 -0.0015,0.253582 -7.06e-4,0.585675 0.0018,0.737987 0.0077,0.478637 0.01432,1.665275 0.01122,2.011332 -0.01048,1.16087 -0.0038,1.406393 0.04009,1.483561 0.02568,0.04503 0.129878,0.114103 0.231556,0.153496 0.203493,0.07883 0.273445,0.183864 0.226162,0.339568 -0.04558,0.150079 -0.167415,0.193726 -0.549696,0.196921 -1.047702,0.0087 -2.328908,0.01034 -2.403696,0.003 -0.03377,-0.0032 -0.08716,-0.02218 -0.118642,-0.04189 z m 0.605824,-0.368484 c -0.02035,-0.03684 -0.16508,-0.01032 -0.167087,0.03066 -0.0024,0.04822 0.08536,0.06959 0.136316,0.03321 0.02605,-0.01859 0.0399,-0.04733 0.03076,-0.06387 z m 2.421351,0.175797 c 0.01285,-0.02916 0.01122,-0.06135 -0.0034,-0.07153 -0.04449,-0.0306 -0.129583,0.03401 -0.104526,0.07938 0.03237,0.05861 0.0803,0.05513 0.108055,-0.0079 z m -0.664381,-1.011431 c 9.92e-4,-0.02024 -0.01477,-0.03762 -0.03501,-0.03861 -0.02024,-9.91e-4 -0.03762,0.01477 -0.03861,0.03501 -9.91e-4,0.02024 0.01476,0.03762 0.03501,0.03861 0.02024,9.92e-4 0.03762,-0.01477 0.03861,-0.03501 z m -0.163997,-0.41823 c 9.91e-4,-0.02024 -0.01527,-0.02738 -0.03612,-0.01587 -0.02086,0.01152 -0.03873,0.03751 -0.03972,0.05776 -9.91e-4,0.02024 0.01527,0.02738 0.03612,0.01587 0.02086,-0.01152 0.03873,-0.03751 0.03972,-0.05776 z m -1.492806,-1.159848 c 0.0016,-0.03427 -0.02244,-0.05428 -0.05909,-0.04901 -0.09322,0.01338 -0.110108,0.09878 -0.02041,0.103169 0.04521,0.0022 0.07784,-0.02001 0.07951,-0.05416 z m 1.768774,-0.881495 c 0.02532,-0.06516 -0.05144,-0.05497 -0.08038,0.01067 -0.01547,0.03517 -0.0081,0.0524 0.01923,0.04476 0.02445,-0.0069 0.05197,-0.03179 0.06116,-0.05543 z m -1.649967,-1.545058 c 0.04103,-0.04479 0.03364,-0.0537 -0.048,-0.05769 -0.0933,-0.0046 -0.124475,0.02911 -0.07619,0.08236 0.03624,0.03996 0.07139,0.03297 0.124194,-0.02466 z M 25.747376,9.9348293 c 0.0015,-0.030362 -0.0038,-0.055529 -0.01181,-0.05592 -0.008,-3.9e-4 -0.02523,0.023663 -0.03835,0.053466 -0.01314,0.029793 -0.0078,0.054959 0.01181,0.055919 0.01959,9.596e-4 0.03687,-0.023093 0.03835,-0.053466 z m 2.255129,-0.092508 c 9.92e-4,-0.020247 -0.01477,-0.037621 -0.03501,-0.038614 -0.02024,-9.915e-4 -0.03762,0.014766 -0.03861,0.035008 -9.91e-4,0.020247 0.01477,0.037621 0.03501,0.038614 0.02024,9.915e-4 0.03762,-0.014766 0.03861,-0.035008 z m -0.02692,-0.2042407 c -0.0237,-0.031597 -0.0737,-0.058952 -0.111067,-0.060783 -0.04527,-0.00221 -0.06178,0.015436 -0.04947,0.052923 0.01019,0.030934 0.06016,0.058289 0.111067,0.060783 0.07814,0.00382 0.08586,-0.00444 0.04947,-0.052923 z m 1.976496,6.6099154 c -0.122968,-0.04049 -0.27391,-0.12034 -0.33542,-0.177465 -0.06151,-0.05712 -0.124076,-0.104461 -0.139048,-0.105193 -0.01496,-7.32e-4 -0.06119,-0.06941 -0.10274,-0.152611 -0.04155,-0.0832 -0.08877,-0.151926 -0.104954,-0.152718 -0.04329,-0.0021 -0.141321,-0.404996 -0.113754,-0.467493 0.01299,-0.0294 0.01063,-0.05409 -0.0053,-0.05487 -0.01589,-7.77e-4 -0.02794,-0.08853 -0.02678,-0.195011 0.0052,-0.474797 -0.02111,-1.093096 -0.05234,-1.234573 -0.04102,-0.185767 -0.269539,-0.432242 -0.40699,-0.438972 -0.05054,-0.0025 -0.09236,-0.0086 -0.09291,-0.01378 -5.49e-4,-0.0051 -0.0047,-0.128114 -0.009,-0.273357 l -0.008,-0.264084 0.124843,-0.0204 c 0.06868,-0.01121 0.147681,-0.03704 0.175589,-0.05739 0.03684,-0.02687 0.05838,-0.02318 0.07864,0.0135 0.03572,0.06465 0.130366,0.03379 0.187261,-0.06106 0.03437,-0.05727 0.03327,-0.07425 -0.005,-0.07612 -0.02704,-0.0013 -0.06999,0.0165 -0.09548,0.0396 -0.06038,0.05474 -0.05716,0.02657 0.01403,-0.122787 0.0624,-0.130916 0.114021,-0.524831 0.07451,-0.568416 -0.04422,-0.04878 -0.02004,-0.16763 0.02763,-0.135724 0.0344,0.02304 0.03557,0.01725 0.005,-0.02525 -0.0219,-0.0305 -0.04043,-0.269488 -0.04146,-0.534867 -0.003,-0.742857 -0.04499,-0.858501 -0.376395,-1.033968 -0.16899,-0.08947 -0.177728,-0.101713 -0.174654,-0.244528 0.0016,-0.082693 -3.37e-4,-0.2044725 -0.0047,-0.270639 l -0.008,-0.1203015 0.340466,0.00744 c 0.765523,0.016741 1.247942,0.095664 1.373521,0.2246872 0.03778,0.038835 0.119395,0.081149 0.18132,0.094041 0.141854,0.029533 0.397584,0.2310473 0.537177,0.4233023 0.125773,0.173221 0.247565,0.48066 0.217456,0.548934 -0.01167,0.02631 -0.0069,0.04853 0.01048,0.04938 0.05534,0.0027 0.07414,0.269445 0.02104,0.298768 -0.03807,0.02102 -0.03842,0.03876 -0.0018,0.08765 0.0335,0.04465 0.03668,0.135953 0.01167,0.336119 -0.02779,0.222259 -0.06106,0.31752 -0.173964,0.498065 -0.196729,0.314607 -0.614778,0.645469 -0.746359,0.590698 -0.02547,-0.0106 -0.04269,0.0019 -0.03827,0.02791 0.0049,0.02795 -0.09903,0.08321 -0.254524,0.135501 -0.278325,0.0936 -0.27937,0.08773 0.02895,0.162224 0.06017,0.01453 0.14212,0.03603 0.182137,0.04775 0.04,0.01172 0.110639,0.03084 0.156934,0.04249 0.290465,0.07308 0.71658,0.404898 0.688669,0.536263 -0.0095,0.04454 0.0062,0.07164 0.04253,0.07342 0.04964,0.0024 0.06463,0.04524 0.04782,0.136573 -0.0024,0.01283 0.01358,0.03563 0.03542,0.05066 0.05775,0.03972 0.08732,0.401736 0.07498,0.918087 -0.0059,0.248259 -0.0025,0.453192 0.0075,0.455406 0.10767,0.02375 0.177738,0.0252 0.172969,0.0036 -0.0032,-0.01453 0.03446,-0.07625 0.08372,-0.13716 0.163278,-0.201945 0.439528,-0.103181 0.460173,0.164522 0.01196,0.155394 -0.149993,0.429987 -0.377868,0.640599 -0.191813,0.177279 -0.479753,0.330823 -0.541172,0.288577 -0.01559,-0.01078 -0.02922,-0.0015 -0.0303,0.02039 -0.0062,0.126704 -0.733489,0.141706 -1.095326,0.02258 z m 1.106886,-0.19899 c -0.102385,-0.02021 -0.148489,0.01641 -0.07999,0.06353 0.03206,0.02205 0.07213,0.0198 0.10677,-0.0061 0.04676,-0.03482 0.04258,-0.04383 -0.0268,-0.05753 z M 30.402994,15.06982 c 0.0015,-0.03036 -0.0038,-0.05553 -0.01181,-0.05592 -0.008,-3.9e-4 -0.02523,0.02366 -0.03835,0.05347 -0.01314,0.02979 -0.0078,0.05496 0.01181,0.05592 0.01959,9.6e-4 0.03687,-0.02309 0.03835,-0.05347 z m -0.210928,-0.213251 c 9.91e-4,-0.02024 -0.0056,-0.03716 -0.01447,-0.0376 -0.009,-4.41e-4 -0.02729,0.01527 -0.04078,0.03489 -0.01358,0.01963 -0.0069,0.03656 0.01447,0.03761 0.02144,10e-4 0.03979,-0.01466 0.04078,-0.0349 z m 0.0044,-0.19348 c -0.01722,-0.03636 -0.06231,-0.06761 -0.100184,-0.06947 -0.04747,-0.0023 -0.06461,0.0169 -0.05518,0.06186 0.0081,0.03879 0.04876,0.06695 0.100184,0.06947 0.07096,0.0035 0.08089,-0.0076 0.05518,-0.06186 z m -0.189495,-0.27677 c -0.02014,-0.06128 -0.0832,-0.08018 -0.08588,-0.02572 -0.0014,0.02794 0.02349,0.04822 0.09645,0.07867 0.0043,0.0018 -3.78e-4,-0.02201 -0.01063,-0.05295 z m 0.330071,-1.943123 c -0.01167,-0.01283 -0.04332,-0.01569 -0.0704,-0.0064 -0.02995,0.01032 -0.02163,0.01947 0.02116,0.02332 0.03873,0.0035 0.06089,-0.0041 0.04926,-0.01697 z m 0.294492,-2.041678 c 0.03959,-0.01445 0.03524,-0.01906 -0.01462,-0.01547 -0.03903,0.0028 -0.07898,0.02961 -0.08874,0.05958 -0.01152,0.03504 -0.0061,0.04056 0.01462,0.01547 0.01781,-0.02145 0.05775,-0.04825 0.08874,-0.05957 z m -1.43015,-0.178841 c 0.07486,-0.05495 0.10615,-0.185094 0.0379,-0.157712 -0.02727,0.01096 -0.07908,0.02871 -0.115127,0.03948 -0.06618,0.01976 -0.08955,0.08747 -0.04657,0.134871 0.03228,0.0356 0.0572,0.03224 0.123795,-0.01663 z m 1.441265,-0.04817 c 0.0015,-0.03036 -0.0038,-0.05553 -0.01181,-0.05592 -0.008,-3.9e-4 -0.02522,0.02366 -0.03835,0.05347 -0.01314,0.02979 -0.0078,0.05496 0.01181,0.05592 0.01959,9.6e-4 0.03687,-0.02309 0.03835,-0.05347 z m -0.21093,-0.2132503 c 9.91e-4,-0.020247 -0.0056,-0.037172 -0.01447,-0.037606 -0.0089,-4.333e-4 -0.02729,0.015269 -0.04078,0.034903 -0.01358,0.019632 -0.0069,0.036558 0.01447,0.037607 0.02144,0.00105 0.03979,-0.014662 0.04078,-0.034904 z m 3.219022,6.2183383 c -0.102282,-0.02968 -0.202236,-0.135592 -0.178584,-0.18922 0.01093,-0.0248 5.33e-4,-0.05317 -0.02329,-0.06304 -0.08182,-0.03402 0.08428,-0.221469 0.272622,-0.307635 l 0.182111,-0.08332 0.01358,-0.276052 c 0.0074,-0.151828 0.01299,-0.516815 0.0124,-0.811088 -0.0034,-1.554957 -0.0046,-1.521856 0.05184,-1.561828 0.08038,-0.057 0.08585,-0.128604 0.01004,-0.132316 -0.06185,-0.003 -0.06745,-0.108129 -0.07739,-1.451921 -0.0059,-0.79676 -0.0061,-1.5339363 -5.25e-4,-1.6381694 l 0.01019,-0.1895137 0.137852,0.010425 c 0.07582,0.00568 0.395252,0.00914 0.709859,0.0076 0.314605,-0.00155 0.746015,0.00382 0.958688,0.011931 l 0.386676,0.014736 4.28e-4,0.1844963 c 2.07e-4,0.1014709 -0.0019,0.3919178 -0.0047,0.6454328 -0.0028,0.253517 7.8e-4,0.515186 0.008,0.58149 0.0089,0.08153 -0.0018,0.120006 -0.03269,0.118872 -0.0347,-0.0013 -0.03448,0.0063 8.36e-4,0.03126 0.02958,0.02085 0.04131,0.09904 0.03201,0.213148 -0.0081,0.09912 -0.01034,0.280046 -0.0052,0.40205 0.01196,0.277478 0.01763,0.715129 0.01713,1.310613 -1.49e-4,0.253647 0.0012,0.540112 0.0032,0.636598 0.0034,0.164118 -0.0022,0.175144 -0.08508,0.171087 -0.05713,-0.0028 -0.08972,0.01683 -0.09159,0.05516 -0.0021,0.04363 0.02187,0.05601 0.08995,0.04641 0.06228,-0.0088 0.09206,0.0034 0.09043,0.03702 -0.0014,0.02755 -0.02317,0.04935 -0.04849,0.04842 -0.03358,-0.0012 -0.03491,0.0062 -0.0049,0.02743 0.04297,0.03045 0.05553,0.24421 0.05874,0.998886 0.0019,0.441288 0.0044,0.4544 0.10116,0.530707 0.05457,0.04303 0.130808,0.07978 0.169418,0.08167 0.1055,0.0052 0.22462,0.147772 0.219017,0.262218 -0.0068,0.139555 -0.114774,0.270416 -0.200758,0.243375 -0.03767,-0.01181 -0.06117,-0.0083 -0.05227,0.0078 0.009,0.01614 -0.244848,0.02822 -0.563915,0.02686 -0.319066,-0.0014 -0.663225,-6.41e-4 -0.764796,0.0016 -0.101573,0.0022 -0.417085,0.0035 -0.701143,0.0028 -0.284058,-7.06e-4 -0.541553,0.0024 -0.572212,0.0069 -0.03065,0.0044 -0.08849,-0.0013 -0.128505,-0.01285 z m 1.60848,-0.645166 c 0.02274,0.01565 0.02825,0.0083 0.01358,-0.01816 -0.02884,-0.05221 -0.09546,-0.02497 -0.09435,0.03858 5.29e-4,0.03147 0.0068,0.0311 0.02166,-0.0013 0.01152,-0.02492 0.03808,-0.03351 0.05906,-0.01908 z m 0.03905,-0.224929 c 0.0015,-0.03036 -0.0038,-0.05553 -0.01181,-0.05592 -0.008,-3.9e-4 -0.02522,0.02366 -0.03835,0.05347 -0.01314,0.02979 -0.0078,0.05496 0.01181,0.05592 0.01959,9.6e-4 0.03686,-0.02309 0.03835,-0.05347 z m 0.118937,-2.429252 c 0.0015,-0.03036 -0.0038,-0.05553 -0.01181,-0.05592 -0.008,-3.9e-4 -0.02522,0.02366 -0.03835,0.05347 -0.01314,0.02979 -0.0078,0.05496 0.01181,0.05592 0.01959,9.6e-4 0.03687,-0.02309 0.03835,-0.05347 z M 35.142022,9.7306923 c -0.02016,-0.061286 -0.0832,-0.080183 -0.08588,-0.025723 -0.0014,0.027938 0.02349,0.048217 0.09645,0.078674 0.0043,0.00185 -3.76e-4,-0.022007 -0.01063,-0.052951 z M 23.30409,14.094917 c -0.04196,-0.03256 -0.09332,-0.122234 -0.114123,-0.199286 -0.0539,-0.199455 -0.157524,-0.427833 -0.238403,-0.525359 -0.04019,-0.04847 -0.0567,-0.102132 -0.03923,-0.127531 0.01949,-0.02835 0.01447,-0.03517 -0.01432,-0.01928 -0.03446,0.01903 -0.195177,-0.06224 -0.322371,-0.163006 -0.0061,-0.0049 -0.01484,-0.126571 -0.01919,-0.27035 -0.0075,-0.249989 -0.004,-0.262703 0.0813,-0.290923 0.04907,-0.01623 0.131281,-0.07051 0.182692,-0.120623 0.07764,-0.07568 0.10299,-0.08291 0.149672,-0.0427 0.04969,0.0428 0.05072,0.04066 0.0089,-0.01847 -0.0378,-0.05338 -0.03764,-0.07749 8.22e-4,-0.119458 0.02649,-0.02892 0.09432,-0.18747 0.150731,-0.352347 0.108232,-0.316366 0.199451,-0.424164 0.352541,-0.416668 0.157884,0.0077 0.228711,0.132149 0.221447,0.389017 -0.0037,0.126645 -0.0053,0.305045 -0.004,0.396426 0.0013,0.09138 0.0034,0.340525 0.0046,0.553651 0.0011,0.213123 0.0035,0.58274 0.0053,0.821364 0.0028,0.387382 -0.0043,0.44138 -0.06687,0.504033 -0.0831,0.08326 -0.23318,0.08393 -0.339373,0.0015 z m -0.353771,-1.288929 c 9.6e-4,-0.0196 -0.02355,-0.02734 -0.05451,-0.01717 -0.03093,0.01016 -0.05657,0.02499 -0.05697,0.03294 -3.89e-4,0.0079 0.02414,0.01568 0.05451,0.01717 0.03037,0.0015 0.05601,-0.01335 0.05697,-0.03295 z m 0.552161,0.02584 c 9.92e-4,-0.02025 -0.01573,-0.03767 -0.03718,-0.03872 -0.02144,-0.0011 -0.02956,0.01516 -0.01804,0.03602 0.01152,0.02086 0.02826,0.03827 0.03718,0.03871 0.009,4.4e-4 0.01705,-0.01577 0.01804,-0.03601 z m -0.30513,-0.549919 c 0.0015,-0.03036 -0.01211,-0.05594 -0.03017,-0.05682 -0.01809,-8.85e-4 -0.04362,0.02276 -0.05676,0.05257 -0.01462,0.033 -0.0028,0.05521 0.03017,0.05682 0.02974,0.0015 0.05527,-0.02219 0.05676,-0.05257 z m 0.975999,-0.744579 c -0.0404,-0.01821 -0.09032,-0.05655 -0.110935,-0.08519 -0.04168,-0.05792 -0.126777,-0.350103 -0.102827,-0.353076 0.0083,-10e-4 -0.0083,-0.02888 -0.03718,-0.06185 -0.02882,-0.03299 -0.111658,-0.15222 -0.184066,-0.264972 -0.200134,-0.311632 -0.593545,-0.583084 -0.939073,-0.647961 -0.09939,-0.01866 -0.198716,-0.04632 -0.220734,-0.06146 -0.03832,-0.02635 -0.05499,-0.4703953 -0.01889,-0.5031199 0.02261,-0.020496 0.414991,-0.030918 0.995284,-0.026436 0.254458,0.00196 0.5725,-5.664e-4 0.706763,-0.00561 0.168143,-0.00633 0.251808,0.00471 0.268837,0.03557 0.01358,0.024616 0.0035,0.056461 -0.02234,0.07076 -0.03117,0.017218 -0.03386,0.031269 -0.008,0.041602 0.04691,0.018714 0.0557,0.2314626 0.04611,1.1173109 -0.0078,0.723996 -0.009,0.728424 -0.206557,0.761837 -0.05116,0.0086 -0.126069,8.5e-4 -0.166457,-0.01739 z m 0.09694,-0.06992 c 9.92e-4,-0.02024 -0.01573,-0.03767 -0.03718,-0.03872 -0.02144,-10e-4 -0.02956,0.01516 -0.01804,0.03602 0.01152,0.02086 0.02825,0.03828 0.03718,0.03872 0.009,4.41e-4 0.01705,-0.01577 0.01804,-0.03602 z m -0.273455,-0.631342 c 0.01034,-0.02654 -0.01417,-0.04681 -0.05911,-0.04901 -0.04521,-0.0022 -0.07784,0.02001 -0.07951,0.05416 -0.0032,0.06764 0.112026,0.06337 0.138619,-0.0051 z m 0.325609,-0.8847764 c 0.07882,-0.1015757 0.05091,-0.1422772 -0.06523,-0.09516 -0.09214,0.037378 -0.121019,0.092672 -0.07492,0.1435041 0.04021,0.044355 0.07848,0.031156 0.140155,-0.048344 z M 23.318196,9.8137133 c 0.0015,-0.031559 -0.01432,-0.047962 -0.03511,-0.036436 -0.02086,0.011517 -0.03869,0.036527 -0.03962,0.055578 -9.32e-4,0.019049 0.01487,0.035443 0.03511,0.036434 0.02024,9.914e-4 0.03808,-0.024018 0.03962,-0.055578 z M 23.10716,9.6026342 c 9.9e-4,-0.020247 -0.01477,-0.037612 -0.03501,-0.038605 -0.02024,-9.915e-4 -0.03762,0.014766 -0.03861,0.034999 -9.92e-4,0.020247 0.01477,0.037621 0.03501,0.038614 0.02024,9.915e-4 0.03762,-0.014766 0.03861,-0.035008 z m 9.393225,2.2343328 c -0.01048,-0.0189 -0.05109,-0.02762 -0.09034,-0.01939 -0.0822,0.01725 -0.180557,-0.1205 -0.16914,-0.236875 0.0038,-0.04024 0.0025,-0.197915 -0.0032,-0.35039 -0.01838,-0.48522 -0.02255,-0.745149 -0.01995,-1.2461843 0.0021,-0.3999726 0.01167,-0.4882901 0.05304,-0.4862632 0.02777,0.00136 0.07179,0.024272 0.09781,0.050906 0.03824,0.039155 0.0422,0.038321 0.02054,-0.00439 -0.02103,-0.041488 -0.0068,-0.046729 0.06652,-0.024475 0.05132,0.015581 0.09951,0.014426 0.107095,-0.00255 0.0077,-0.017001 0.225404,-0.029457 0.484045,-0.027681 l 0.470253,0.00323 -0.0068,0.1387378 c -0.0037,0.076301 6.83e-4,0.1883698 0.0097,0.2490254 0.01358,0.09094 -0.0077,0.1342353 -0.121433,0.2468013 -0.07587,0.07508 -0.169957,0.189585 -0.209096,0.254448 -0.03914,0.06486 -0.09051,0.109402 -0.114168,0.09897 -0.0634,-0.02796 -0.142665,0.06807 -0.0875,0.106022 0.02723,0.01873 0.03409,0.01351 0.01877,-0.01425 -0.01462,-0.0264 1.64e-4,-0.04259 0.03714,-0.04078 0.04418,0.0022 0.05288,0.02064 0.0311,0.06608 -0.01663,0.0347 -0.04013,0.09996 -0.05224,0.145022 -0.01211,0.04506 -0.04908,0.08087 -0.08217,0.07956 -0.04681,-0.0019 -0.04964,0.005 -0.0127,0.03101 0.03796,0.02675 0.03733,0.07615 -0.0031,0.248323 -0.02779,0.118213 -0.05701,0.256121 -0.06494,0.306463 -0.008,0.05034 -0.02841,0.111602 -0.04554,0.136127 -0.01711,0.02453 -0.02141,0.06213 -0.0096,0.08357 0.01181,0.02144 -0.03359,0.08562 -0.100953,0.142639 -0.128697,0.108935 -0.171634,0.122963 -0.202936,0.0663 z m 0.608431,-1.543891 c 0.0015,-0.03156 -0.01432,-0.04796 -0.03511,-0.03644 -0.02086,0.01152 -0.03869,0.03653 -0.03962,0.05558 -9.33e-4,0.01905 0.01487,0.03544 0.03511,0.03643 0.02024,9.91e-4 0.03808,-0.02402 0.03962,-0.05558 z m -0.211036,-0.21108 c 9.9e-4,-0.02025 -0.0056,-0.03716 -0.01447,-0.0376 -0.009,-4.4e-4 -0.02729,0.01527 -0.04078,0.03489 -0.01358,0.01963 -0.0069,0.03656 0.01447,0.03761 0.02144,10e-4 0.03979,-0.01466 0.04078,-0.0349 z m 0.0065,-0.1336447 c 0.003,-0.059234 -0.05366,-0.1269254 -0.108291,-0.1295994 -0.06611,-0.00323 -0.09857,0.068167 -0.05357,0.1177972 0.01857,0.020484 0.160932,0.03086 0.161865,0.011783 z M 32.675967,9.6099486 c -0.01019,-0.030934 -0.0353,-0.057072 -0.05586,-0.058079 -0.02154,-0.00105 -0.01911,0.022507 0.0058,0.055624 0.02371,0.031597 0.04886,0.057737 0.05586,0.058079 0.0069,3.395e-4 0.0044,-0.024679 -0.0058,-0.055624 z m 4.612321,2.1070464 c -0.03751,-0.0528 -0.08376,-0.183738 -0.102788,-0.29097 C 37.075082,10.803755 36.943905,10.474226 36.691713,10.18557 36.524812,9.9945399 36.518391,9.9782992 36.511929,9.7308963 l -0.0066,-0.2565671 0.182493,0.026593 c 0.100376,0.014633 0.175052,0.013112 0.165958,-0.00335 -0.0092,-0.016468 0.0127,-0.027067 0.0485,-0.023551 0.03578,0.00356 0.24956,0.0027 0.475069,-0.00182 l 0.410021,-0.00819 0.01906,0.088341 c 0.01048,0.048591 0.01373,0.2021801 0.0072,0.3413178 -0.01019,0.217008 -0.01915,0.2463 -0.06315,0.206009 -0.0282,-0.02583 -0.08015,-0.04286 -0.115423,-0.03784 -0.06045,0.0086 -0.0606,0.01304 -0.0025,0.07705 0.03387,0.03736 0.0761,0.05991 0.09384,0.05011 0.05549,-0.03065 0.08235,0.06611 0.02717,0.09796 -0.0439,0.02535 -0.04375,0.03633 9.47e-4,0.06825 0.0645,0.04604 0.07629,0.226339 0.01462,0.224117 -0.03253,-0.0012 -0.03327,0.0059 -0.0028,0.02753 0.02563,0.0182 0.041,0.224812 0.04105,0.551383 8.8e-5,0.498804 -0.0035,0.525566 -0.08078,0.59559 -0.11941,0.10827 -0.3488,0.08898 -0.43817,-0.03684 z m 0.282459,-1.8689824 c -0.01048,-0.031829 -0.02729,-0.050355 -0.03742,-0.041178 -0.01004,0.00917 -0.0084,0.034879 0.004,0.057133 0.03341,0.060498 0.05519,0.050128 0.03349,-0.015941 z M 23.947485,17.307427 c 0.07012,-0.05164 0.09469,-0.132418 0.04109,-0.135046 -0.07486,-0.0037 -0.18536,0.0676 -0.187985,0.121226 -0.0032,0.06506 0.0682,0.07176 0.146903,0.01388 z m 4.91241,0.207152 c 0.03321,-0.04281 0.05286,-0.08614 0.04363,-0.0963 -0.02944,-0.03247 -0.2054,0.06904 -0.207891,0.119941 -0.0037,0.07686 0.09759,0.06227 0.164245,-0.02364 z m -3.659686,-0.172236 c 9.91e-4,-0.02024 -0.01574,-0.03765 -0.03718,-0.0387 -0.02144,-0.0011 -0.02955,0.01515 -0.01804,0.036 0.01152,0.02086 0.02826,0.03829 0.03718,0.03872 0.009,4.4e-4 0.01705,-0.01577 0.01804,-0.03601 z m -4.708572,-0.285886 c 0.0015,-0.03037 -0.0038,-0.05553 -0.01181,-0.05592 -0.008,-3.9e-4 -0.02522,0.02367 -0.03835,0.05347 -0.01314,0.0298 -0.0078,0.05496 0.01181,0.05592 0.01959,9.59e-4 0.03686,-0.02309 0.03835,-0.05347 z m 2.466058,0.120739 c 0.0015,-0.03036 -0.01211,-0.05595 -0.03015,-0.05682 -0.01809,-8.85e-4 -0.04362,0.02277 -0.05677,0.05256 -0.01462,0.033 -0.0028,0.05521 0.03015,0.05682 0.02974,0.0015 0.05527,-0.02219 0.05676,-0.05256 z m 2.429251,0.118937 c 0.0015,-0.03037 -0.0038,-0.05553 -0.01181,-0.05592 -0.008,-3.89e-4 -0.02523,0.02367 -0.03835,0.05347 -0.01314,0.0298 -0.0078,0.05496 0.01181,0.05592 0.01959,9.6e-4 0.03687,-0.02309 0.03835,-0.05347 z m 2.429252,0.118937 c 0.02797,-0.03054 0.03269,-0.05375 0.01107,-0.05481 -0.02055,-0.001 -0.04813,0.02255 -0.06126,0.05234 -0.01314,0.0298 -0.01815,0.05446 -0.01107,0.05481 0.0069,3.4e-4 0.03458,-0.0232 0.06126,-0.05234 z m 2.466059,0.120739 c 0.0015,-0.03036 -0.0038,-0.05553 -0.01181,-0.05592 -0.008,-3.9e-4 -0.02522,0.02367 -0.03835,0.05347 -0.01314,0.0298 -0.0078,0.05496 0.01181,0.05592 0.01959,9.6e-4 0.03685,-0.02309 0.03835,-0.05347 z m -8.881003,-0.517066 c -0.03559,-0.03925 -0.06921,0.01556 -0.04095,0.06674 0.02137,0.03866 0.03002,0.03911 0.04431,0.0024 0.0097,-0.02516 0.0083,-0.05623 -0.0034,-0.06907 z m 3.793166,0.06503 c -0.01152,-0.02086 -0.03752,-0.03873 -0.05775,-0.03974 -0.02024,-9.9e-4 -0.02739,0.01527 -0.01581,0.03613 0.01152,0.02086 0.03752,0.03873 0.05775,0.03973 0.02024,9.91e-4 0.02739,-0.01527 0.01581,-0.03613 z m 2.447656,0.119838 c 9.91e-4,-0.02024 -0.01477,-0.03762 -0.03501,-0.03861 -0.02024,-9.9e-4 -0.03762,0.01477 -0.03861,0.03501 -9.91e-4,0.02024 0.01477,0.03762 0.03501,0.03861 0.02024,9.91e-4 0.03762,-0.01477 0.03861,-0.03501 z m 4.896317,0.219107 c 0.0015,-0.03155 -0.01432,-0.04794 -0.03511,-0.03643 -0.02086,0.01152 -0.03869,0.03653 -0.03962,0.05558 -9.33e-4,0.01905 0.01487,0.03544 0.03511,0.03643 0.02024,9.93e-4 0.03808,-0.02402 0.03962,-0.05558 z m 0.0078,-0.161285 c 0.0024,-0.04814 -0.069,-0.09214 -0.16363,-0.100938 -0.06742,-0.0062 -0.07389,0.0031 -0.04204,0.06002 0.03891,0.06968 0.202673,0.102267 0.205677,0.04093 z m 4.895056,0.244843 c 0.0027,-0.05496 -0.07686,-0.116146 -0.128771,-0.09908 -0.0888,0.02918 -0.06315,0.119203 0.03532,0.124031 0.05062,0.0025 0.09267,-0.0087 0.09345,-0.02494 z M 34.767594,17.06967 c -0.02052,-0.04334 -0.04709,-0.06995 -0.059,-0.05912 -0.01196,0.01078 -0.0019,0.04592 0.02212,0.07804 0.06227,0.08297 0.08068,0.07353 0.03687,-0.01891 z m 2.444994,0.104423 c -0.01019,-0.03093 -0.0353,-0.05708 -0.05586,-0.05809 -0.02154,-0.0011 -0.01911,0.02252 0.0058,0.05562 0.02371,0.0316 0.04886,0.05773 0.05586,0.05809 0.0069,3.39e-4 0.0044,-0.02467 -0.0058,-0.05562 z M 6.6126295,14.843301 c -0.048721,-0.03351 -0.1428648,-0.01196 -0.1450767,0.03322 -0.00242,0.04949 0.085608,0.06975 0.1385414,0.03189 0.03821,-0.02733 0.039712,-0.04228 0.00644,-0.06511 z m 32.1461735,0.722242 c 0.08301,-0.08676 0.09843,-0.153533 0.02891,-0.125171 -0.02588,0.01056 -0.07655,0.028 -0.112588,0.03876 -0.06618,0.01976 -0.08955,0.08747 -0.04657,0.134872 0.03576,0.03946 0.05184,0.03348 0.130248,-0.04846 z m -0.09078,-4.001916 c 0.01612,-0.03649 9.33e-4,-0.0553 -0.04639,-0.05762 -0.07587,-0.0037 -0.126438,0.04266 -0.09014,0.08268 0.03975,0.04384 0.112012,0.03058 0.136553,-0.02507 z m 0.324002,-0.861567 c 0.08013,-0.05882 0.09838,-0.169262 0.02851,-0.172682 -0.03124,-0.0015 -0.05763,0.01378 -0.05862,0.03402 -9.91e-4,0.02025 -0.02664,0.0356 -0.05702,0.03411 -0.05604,-0.0028 -0.07931,0.07417 -0.03668,0.121187 0.03228,0.03559 0.0572,0.03224 0.123795,-0.01663 z M 8.4203644,8.6851739 c -0.01759,-0.063787 -0.1698103,-0.082907 -0.1728068,-0.021707 -0.00368,0.074944 0.026744,0.096765 0.1104513,0.079204 0.040656,-0.00853 0.068719,-0.034407 0.062354,-0.057503 z m 2.4741816,0.1714248 c 0.0022,-0.045511 -0.08594,-0.1143657 -0.150503,-0.117527 -0.05344,-0.00261 -0.06087,0.010779 -0.03561,0.064138 0.0289,0.060978 0.183546,0.1053439 0.18609,0.053387 z M 8.19891,8.409944 C 8.188471,8.378114 8.171633,8.35959 8.161495,8.368766 8.151366,8.377936 8.153105,8.403644 8.165455,8.425894 8.198877,8.486392 8.220647,8.476023 8.198914,8.409952 Z m 2.46659,0.1223938 c -0.02014,-0.061285 -0.08321,-0.080183 -0.08587,-0.025731 -0.0014,0.027938 0.0235,0.048217 0.09645,0.078674 0.0044,0.00185 -3.77e-4,-0.022007 -0.01056,-0.052951 z m 2.42398,0.092241 c -0.02512,-0.027703 -0.04216,-0.03072 -0.04328,-0.00768 -0.001,0.02092 0.0087,0.049614 0.02147,0.063771 0.0127,0.014145 0.03232,0.017598 0.04328,0.00768 0.01093,-0.00994 0.0012,-0.038656 -0.02145,-0.063771 z m 2.471328,0.1474392 c -0.02014,-0.061286 -0.0832,-0.080183 -0.08588,-0.025731 -0.0014,0.027938 0.02349,0.048217 0.09645,0.078674 0.0043,0.00185 -3.78e-4,-0.022007 -0.01063,-0.052951 z m -0.734833,-0.33511 c 0.0015,-0.030466 -0.06913,-0.051188 -0.08682,-0.025478 -0.01152,0.016678 0.0032,0.031508 0.03272,0.032955 0.0295,0.00144 0.05382,-0.0019 0.05409,-0.00747 z m 9.291626,-0.066899 c 0.01034,-0.026543 -0.01417,-0.046809 -0.05911,-0.049012 -0.04521,-0.00221 -0.07784,0.020009 -0.07951,0.054156 -0.0032,0.067644 0.112027,0.063371 0.13862,-0.00514 z m 4.895478,0.2396894 c 0.02574,-0.066931 -0.123499,-0.062769 -0.153069,0.00427 -0.01869,0.042402 -0.0047,0.054692 0.05534,0.048825 0.04418,-0.00434 0.08817,-0.028199 0.09773,-0.053099 z m 2.45113,0.1292347 c 0.01725,-0.039135 -0.0013,-0.055407 -0.06698,-0.058624 -0.05623,-0.00275 -0.09189,0.016599 -0.09357,0.050763 -0.0015,0.030362 0.02864,0.056747 0.06698,0.058624 0.03832,0.00188 0.08043,-0.02096 0.09357,-0.050763 z m 7.339323,0.3501187 c 0.01034,-0.026543 -0.01418,-0.046809 -0.05911,-0.049012 -0.04521,-0.00221 -0.07783,0.020009 -0.07951,0.054156 -0.0032,0.067644 0.112027,0.063371 0.138619,-0.00514 z m -0.868294,-0.916593 c 4.37e-4,-0.00892 -0.01527,-0.027281 -0.03491,-0.040781 -0.01964,-0.013496 -0.03656,-0.00701 -0.03761,0.014426 -10e-4,0.021441 0.01462,0.03979 0.03491,0.040781 0.02024,9.915e-4 0.03717,-0.00554 0.03761,-0.014426 z"
       id="path3101" />
    <text
       xml:space="preserve"
       style="font-style:normal;font-variant:normal;font-weight:normal;font-stretch:normal;font-size:5.05573px;line-height:125%;font-family:Anton;-inkscape-font-specification:'Anton, Normal';font-variant-ligatures:normal;font-variant-caps:normal;font-variant-numeric:normal;font-variant-east-asian:normal;text-align:start;letter-spacing:0px;word-spacing:0px;writing-mode:lr-tb;text-anchor:start;fill:#000000;fill-opacity:1;stroke:none;stroke-width:0.126394px;stroke-linecap:butt;stroke-linejoin:miter;stroke-opacity:1"
       x="15.687061"
       y="23.004333"
       id="text3105"><tspan
         sodipodi:role="line"
         id="tspan3103"
         x="15.687061"
         y="23.004333"
         style="font-style:normal;font-variant:normal;font-weight:normal;font-stretch:normal;font-size:5.05573px;font-family:Anton;-inkscape-font-specification:'Anton, Normal';font-variant-ligatures:normal;font-variant-caps:normal;font-variant-numeric:normal;font-variant-east-asian:normal;stroke-width:0.126394px">GAME OVER</tspan></text>
    <circle
       style="opacity:1;fill:#130000;fill-opacity:1;fill-rule:nonzero;stroke:#333435;stroke-width:0.899999;stroke-linecap:round;stroke-linejoin:round;stroke-miterlimit:1.41421;stroke-dasharray:none;stroke-dashoffset:0;stroke-opacity:1;paint-order:markers stroke fill"
       id="path3107"
       cx="6.7165928"
       cy="3.1156638"
       r="0.46393001" />
    <circle
       style="opacity:1;fill:#130000;fill-opacity:1;fill-rule:nonzero;stroke:#333435;stroke-width:0.899999;stroke-linecap:round;stroke-linejoin:round;stroke-miterlimit:1.41421;stroke-dasharray:none;stroke-dashoffset:0;stroke-opacity:1;paint-order:markers stroke fill"
       id="path3107-9"
       cx="38.573627"
       cy="3.2552574"
       r="0.46393004" />
    <circle
       style="opacity:1;fill:#130000;fill-opacity:1;fill-rule:nonzero;stroke:#333435;stroke-width:0.899999;stroke-linecap:round;stroke-linejoin:round;stroke-miterlimit:1.41421;stroke-dasharray:none;stroke-dashoffset:0;stroke-opacity:1;paint-order:markers stroke fill"
       id="path3107-9-1"
       cx="38.795624"
       cy="23.079311"
       r="0.46393007" />
    <circle
       style="opacity:1;fill:#130000;fill-opacity:1;fill-rule:nonzero;stroke:#333435;stroke-width:0.899999;stroke-linecap:round;stroke-linejoin:round;stroke-miterlimit:1.41421;stroke-dasharray:none;stroke-dashoffset:0;stroke-opacity:1;paint-order:markers stroke fill"
       id="path3107-9-1-3"
       cx="6.6076627"
       cy="22.953709"
       r="0.46393007" />
    <rect
       style="opacity:1;fill:none;fill-opacity:0.0959753;fill-rule:nonzero;stroke:#ff0000;stroke-width:1.04488;stroke-linecap:round;stroke-linejoin:round;stroke-miterlimit:1.41421;stroke-dasharray:none;stroke-dashoffset:0;stroke-opacity:1;paint-order:markers stroke fill"
       id="rect3274"
       width="33.955116"
       height="31.955118"
       x="47.437241"
       y="2.1678014"
       rx="0.36380482"
       ry="0.65480888" />
    <circle
       style="opacity:1;fill:#130000;fill-opacity:1;fill-rule:nonzero;stroke:#333435;stroke-width:0.899999;stroke-linecap:round;stroke-linejoin:round;stroke-miterlimit:1.41421;stroke-dasharray:none;stroke-dashoffset:0;stroke-opacity:1;paint-order:markers stroke fill"
       id="circle3276"
       cx="49.022598"
       cy="4.0182023"
       r="0.46393001" />
    <circle
       style="opacity:1;fill:#130000;fill-opacity:1;fill-rule:nonzero;stroke:#333435;stroke-width:0.899999;stroke-linecap:round;stroke-linejoin:round;stroke-miterlimit:1.41421;stroke-dasharray:none;stroke-dashoffset:0;stroke-opacity:1;paint-order:markers stroke fill"
       id="circle3278"
       cx="79.824081"
       cy="4.0543766"
       r="0.46393004" />
    <circle
       style="opacity:1;fill:#130000;fill-opacity:1;fill-rule:nonzero;stroke:#333435;stroke-width:0.899999;stroke-linecap:round;stroke-linejoin:round;stroke-miterlimit:1.41421;stroke-dasharray:none;stroke-dashoffset:0;stroke-opacity:1;paint-order:markers stroke fill"
       id="circle3280"
       cx="79.774193"
       cy="32.117477"
       r="0.46393007" />
    <circle
       style="opacity:1;fill:#130000;fill-opacity:1;fill-rule:nonzero;stroke:#333435;stroke-width:0.899999;stroke-linecap:round;stroke-linejoin:round;stroke-miterlimit:1.41421;stroke-dasharray:none;stroke-dashoffset:0;stroke-opacity:1;paint-order:markers stroke fill"
       id="circle3282"
       cx="48.928177"
       cy="32.194794"
       r="0.46393007" />
    <path
       style="fill:none;fill-rule:evenodd;stroke:#000000;stroke-width:1.812;stroke-linecap:round;stroke-linejoin:round;stroke-miterlimit:4;stroke-dasharray:none;stroke-opacity:1"
       d="m 54.45244,5.0013526 19.018122,0.17791"
       id="path3284"
       sodipodi:nodetypes="cc" />
    <path
       style="fill:none;fill-rule:evenodd;stroke:#000000;stroke-width:1.812;stroke-linecap:round;stroke-linejoin:round;stroke-miterlimit:4;stroke-dasharray:none;stroke-opacity:1"
       d="m 54.45244,7.8587474 19.018122,0.17791"
       id="path3286"
       sodipodi:nodetypes="cc" />
    <path
       style="fill:none;fill-rule:evenodd;stroke:#000000;stroke-width:1.812;stroke-linecap:round;stroke-linejoin:round;stroke-miterlimit:4;stroke-dasharray:none;stroke-opacity:1"
       d="m 54.507451,10.809518 19.018122,0.17791"
       id="path3288"
       sodipodi:nodetypes="cc" />
  </g>
</svg>
